<?xml version="1.0" encoding="UTF-8" standalone="no"?><!DOCTYPE svg PUBLIC "-//W3C//DTD SVG 1.1//EN" "http://www.w3.org/Graphics/SVG/1.1/DTD/svg11.dtd"><!-- Generated by graphviz version 2.40.1 (20161225.0304)
 --><!-- Title: A&#45;1.c.011t.cfg Pages: 1 --><svg xmlns="http://www.w3.org/2000/svg" xmlns:xlink="http://www.w3.org/1999/xlink" width="164pt" height="968pt" viewBox="0.00 0.00 164.00 968.20">
<g id="graph0" class="graph" transform="scale(1 1) rotate(0) translate(4 964.2)">
<title>A-1.c.011t.cfg</title>
<polygon fill="#ffffff" stroke="transparent" points="-4,4 -4,-964.2 160,-964.2 160,4 -4,4"/>
<g id="clust1" class="cluster">
<title>cluster_main</title>
<polygon fill="none" stroke="#000000" stroke-dasharray="5,2" points="8,-8 8,-952.2 148,-952.2 148,-8 8,-8"/>
<text text-anchor="middle" x="78" y="-935.6" font-family="Times,serif" font-size="14.00" fill="#000000">main ()</text>
</g>
<!-- fn_0_basic_block_0 -->
<g id="node1" class="node">
<title>fn_0_basic_block_0</title>
<polygon fill="#ffffff" stroke="#000000" points="79,-919.4 17.76,-901.4 79,-883.4 140.24,-901.4 79,-919.4"/>
<polyline fill="none" stroke="#000000" points="29.273,-904.784 29.273,-898.016 "/>
<polyline fill="none" stroke="#000000" points="67.487,-886.784 90.513,-886.784 "/>
<polyline fill="none" stroke="#000000" points="128.727,-898.016 128.727,-904.784 "/>
<polyline fill="none" stroke="#000000" points="90.513,-916.016 67.487,-916.016 "/>
<text text-anchor="middle" x="79" y="-897.2" font-family="Times,serif" font-size="14.00" fill="#000000">ENTRY</text>
</g>
<!-- fn_0_basic_block_1 -->
<g id="node2" class="node">
<title>fn_0_basic_block_1</title>
<polygon fill="#ffffff" stroke="#000000" points="88,-52 41.1002,-34 88,-16 134.8998,-34 88,-52"/>
<polyline fill="none" stroke="#000000" points="52.3034,-38.2998 52.3034,-29.7002 "/>
<polyline fill="none" stroke="#000000" points="76.7968,-20.2998 99.2032,-20.2998 "/>
<polyline fill="none" stroke="#000000" points="123.6966,-29.7002 123.6966,-38.2998 "/>
<polyline fill="none" stroke="#000000" points="99.2032,-47.7002 76.7968,-47.7002 "/>
<text text-anchor="middle" x="88" y="-29.8" font-family="Times,serif" font-size="14.00" fill="#000000">EXIT</text>
</g>
<!-- fn_0_basic_block_0&#45;&gt;fn_0_basic_block_1 -->
<!-- fn_0_basic_block_2 -->
<g id="node3" class="node">
<title>fn_0_basic_block_2</title>
<polygon fill="#d3d3d3" stroke="#000000" points="36.1338,-143.3 36.1338,-792.1 139.8662,-792.1 139.8662,-143.3 36.1338,-143.3"/>
<text text-anchor="middle" x="88" y="-775.5" font-family="Times,serif" font-size="14.00" fill="#000000">FREQ:0</text>
<polyline fill="none" stroke="#000000" points="36.1338,-767.3 139.8662,-767.3 "/>
<text text-anchor="start" x="44.1338" y="-750.7" font-family="Times,serif" font-size="14.00" fill="#000000">&lt;bb 2&gt;:</text>
<text text-anchor="middle" x="88" y="-733.9" font-family="Times,serif" font-size="14.00" fill="#000000"></text>
<polyline fill="none" stroke="#000000" points="36.1338,-725.7 139.8662,-725.7 "/>
<text text-anchor="start" x="44.1338" y="-709.1" font-family="Times,serif" font-size="14.00" fill="#000000">p = 6;</text>
<text text-anchor="middle" x="88" y="-692.3" font-family="Times,serif" font-size="14.00" fill="#000000"></text>
<polyline fill="none" stroke="#000000" points="36.1338,-684.1 139.8662,-684.1 "/>
<text text-anchor="start" x="44.1338" y="-667.5" font-family="Times,serif" font-size="14.00" fill="#000000">a = 10;</text>
<text text-anchor="middle" x="88" y="-650.7" font-family="Times,serif" font-size="14.00" fill="#000000"></text>
<polyline fill="none" stroke="#000000" points="36.1338,-642.5 139.8662,-642.5 "/>
<text text-anchor="start" x="44.1338" y="-625.9" font-family="Times,serif" font-size="14.00" fill="#000000">b = 20;</text>
<text text-anchor="middle" x="88" y="-609.1" font-family="Times,serif" font-size="14.00" fill="#000000"></text>
<polyline fill="none" stroke="#000000" points="36.1338,-600.9 139.8662,-600.9 "/>
<text text-anchor="start" x="44.1338" y="-584.3" font-family="Times,serif" font-size="14.00" fill="#000000">_1 = a * b;</text>
<text text-anchor="middle" x="88" y="-567.5" font-family="Times,serif" font-size="14.00" fill="#000000"></text>
<polyline fill="none" stroke="#000000" points="36.1338,-559.3 139.8662,-559.3 "/>
<text text-anchor="start" x="44.1338" y="-542.7" font-family="Times,serif" font-size="14.00" fill="#000000">c = _1 + 25;</text>
<text text-anchor="middle" x="88" y="-525.9" font-family="Times,serif" font-size="14.00" fill="#000000"></text>
<polyline fill="none" stroke="#000000" points="36.1338,-517.7 139.8662,-517.7 "/>
<text text-anchor="start" x="44.1338" y="-501.1" font-family="Times,serif" font-size="14.00" fill="#000000">p = 6;</text>
<text text-anchor="middle" x="88" y="-484.3" font-family="Times,serif" font-size="14.00" fill="#000000"></text>
<polyline fill="none" stroke="#000000" points="36.1338,-476.1 139.8662,-476.1 "/>
<text text-anchor="start" x="44.1338" y="-459.5" font-family="Times,serif" font-size="14.00" fill="#000000">q = Z;</text>
<text text-anchor="middle" x="88" y="-442.7" font-family="Times,serif" font-size="14.00" fill="#000000"></text>
<polyline fill="none" stroke="#000000" points="36.1338,-434.5 139.8662,-434.5 "/>
<text text-anchor="start" x="44.1338" y="-417.9" font-family="Times,serif" font-size="14.00" fill="#000000">r = 3.45e+1;</text>
<text text-anchor="middle" x="88" y="-401.1" font-family="Times,serif" font-size="14.00" fill="#000000"></text>
<polyline fill="none" stroke="#000000" points="36.1338,-392.9 139.8662,-392.9 "/>
<text text-anchor="start" x="44.1338" y="-376.3" font-family="Times,serif" font-size="14.00" fill="#000000">_2 = (int) r;</text>
<text text-anchor="middle" x="88" y="-359.5" font-family="Times,serif" font-size="14.00" fill="#000000"></text>
<polyline fill="none" stroke="#000000" points="36.1338,-351.3 139.8662,-351.3 "/>
<text text-anchor="start" x="44.1338" y="-334.7" font-family="Times,serif" font-size="14.00" fill="#000000">Z = _2;</text>
<text text-anchor="middle" x="88" y="-317.9" font-family="Times,serif" font-size="14.00" fill="#000000"></text>
<polyline fill="none" stroke="#000000" points="36.1338,-309.7 139.8662,-309.7 "/>
<text text-anchor="start" x="44.1338" y="-293.1" font-family="Times,serif" font-size="14.00" fill="#000000">Z.0_3 = Z;</text>
<text text-anchor="middle" x="88" y="-276.3" font-family="Times,serif" font-size="14.00" fill="#000000"></text>
<polyline fill="none" stroke="#000000" points="36.1338,-268.1 139.8662,-268.1 "/>
<text text-anchor="start" x="44.1338" y="-251.5" font-family="Times,serif" font-size="14.00" fill="#000000">_4 = Z.0_3 + 1;</text>
<text text-anchor="middle" x="88" y="-234.7" font-family="Times,serif" font-size="14.00" fill="#000000"></text>
<polyline fill="none" stroke="#000000" points="36.1338,-226.5 139.8662,-226.5 "/>
<text text-anchor="start" x="44.1338" y="-209.9" font-family="Times,serif" font-size="14.00" fill="#000000">Z = _4;</text>
<text text-anchor="middle" x="88" y="-193.1" font-family="Times,serif" font-size="14.00" fill="#000000"></text>
<polyline fill="none" stroke="#000000" points="36.1338,-184.9 139.8662,-184.9 "/>
<text text-anchor="start" x="44.1338" y="-168.3" font-family="Times,serif" font-size="14.00" fill="#000000">return;</text>
<text text-anchor="middle" x="88" y="-151.5" font-family="Times,serif" font-size="14.00" fill="#000000"></text>
</g>
<!-- fn_0_basic_block_0&#45;&gt;fn_0_basic_block_2 -->
<g id="edge1" class="edge">
<title>fn_0_basic_block_0:s-&gt;fn_0_basic_block_2:n</title>
<path fill="none" stroke="#0000ff" stroke-width="2" d="M79,-883.4C79,-846.1278 86.4555,-834.6633 87.7951,-802.0284"/>
<polygon fill="#0000ff" stroke="#0000ff" stroke-width="2" points="91.3009,-801.7675 88,-791.7 84.3023,-801.6286 91.3009,-801.7675"/>
<text text-anchor="middle" x="97.9909" y="-833.8" font-family="Times,serif" font-size="14.00" fill="#000000">[0%]</text>
</g>
<!-- fn_0_basic_block_2&#45;&gt;fn_0_basic_block_1 -->
<g id="edge2" class="edge">
<title>fn_0_basic_block_2:s-&gt;fn_0_basic_block_1:n</title>
<path fill="none" stroke="#000000" stroke-width="2" d="M88,-143.7C88,-106.6061 88,-94.8331 88,-62.289"/>
<polygon fill="#000000" stroke="#000000" stroke-width="2" points="91.5001,-62 88,-52 84.5001,-62 91.5001,-62"/>
<text text-anchor="middle" x="101.9909" y="-93.2" font-family="Times,serif" font-size="14.00" fill="#000000">[0%]</text>
</g>
</g>
</svg>