<?xml version="1.0" encoding="UTF-8" standalone="no"?><!DOCTYPE svg PUBLIC "-//W3C//DTD SVG 1.1//EN" "http://www.w3.org/Graphics/SVG/1.1/DTD/svg11.dtd"><!-- Generated by graphviz version 2.40.1 (20161225.0304)
 --><!-- Title: A&#45;2.c.011t.cfg Pages: 1 --><svg xmlns="http://www.w3.org/2000/svg" xmlns:xlink="http://www.w3.org/1999/xlink" width="348pt" height="752pt" viewBox="0.00 0.00 348.00 752.00">
<g id="graph0" class="graph" transform="scale(1 1) rotate(0) translate(4 748)">
<title>A-2.c.011t.cfg</title>
<polygon fill="#ffffff" stroke="transparent" points="-4,4 -4,-748 344,-748 344,4 -4,4"/>
<g id="clust1" class="cluster">
<title>cluster_main</title>
<polygon fill="none" stroke="#000000" stroke-dasharray="5,2" points="8,-8 8,-736 332,-736 332,-8 8,-8"/>
<text text-anchor="middle" x="170" y="-719.4" font-family="Times,serif" font-size="14.00" fill="#000000">main ()</text>
</g>
<!-- fn_0_basic_block_0 -->
<g id="node1" class="node">
<title>fn_0_basic_block_0</title>
<polygon fill="#ffffff" stroke="#000000" points="180,-703.2 118.76,-685.2 180,-667.2 241.24,-685.2 180,-703.2"/>
<polyline fill="none" stroke="#000000" points="130.273,-688.584 130.273,-681.816 "/>
<polyline fill="none" stroke="#000000" points="168.487,-670.584 191.513,-670.584 "/>
<polyline fill="none" stroke="#000000" points="229.727,-681.816 229.727,-688.584 "/>
<polyline fill="none" stroke="#000000" points="191.513,-699.816 168.487,-699.816 "/>
<text text-anchor="middle" x="180" y="-681" font-family="Times,serif" font-size="14.00" fill="#000000">ENTRY</text>
</g>
<!-- fn_0_basic_block_1 -->
<g id="node2" class="node">
<title>fn_0_basic_block_1</title>
<polygon fill="#ffffff" stroke="#000000" points="180,-52 133.1002,-34 180,-16 226.8998,-34 180,-52"/>
<polyline fill="none" stroke="#000000" points="144.3034,-38.2998 144.3034,-29.7002 "/>
<polyline fill="none" stroke="#000000" points="168.7968,-20.2998 191.2032,-20.2998 "/>
<polyline fill="none" stroke="#000000" points="215.6966,-29.7002 215.6966,-38.2998 "/>
<polyline fill="none" stroke="#000000" points="191.2032,-47.7002 168.7968,-47.7002 "/>
<text text-anchor="middle" x="180" y="-29.8" font-family="Times,serif" font-size="14.00" fill="#000000">EXIT</text>
</g>
<!-- fn_0_basic_block_0&#45;&gt;fn_0_basic_block_1 -->
<!-- fn_0_basic_block_2 -->
<g id="node3" class="node">
<title>fn_0_basic_block_2</title>
<polygon fill="#d3d3d3" stroke="#000000" points="36.2231,-384.7 36.2231,-575.9 323.7769,-575.9 323.7769,-384.7 36.2231,-384.7"/>
<text text-anchor="middle" x="180" y="-559.3" font-family="Times,serif" font-size="14.00" fill="#000000">FREQ:0</text>
<polyline fill="none" stroke="#000000" points="36.2231,-551.1 323.7769,-551.1 "/>
<text text-anchor="start" x="44.2231" y="-534.5" font-family="Times,serif" font-size="14.00" fill="#000000">&lt;bb 2&gt;:</text>
<text text-anchor="middle" x="180" y="-517.7" font-family="Times,serif" font-size="14.00" fill="#000000"></text>
<polyline fill="none" stroke="#000000" points="36.2231,-509.5 323.7769,-509.5 "/>
<text text-anchor="start" x="44.2231" y="-492.9" font-family="Times,serif" font-size="14.00" fill="#000000">D.1812 = __builtin_dwarf_cfa (0);</text>
<text text-anchor="middle" x="180" y="-476.1" font-family="Times,serif" font-size="14.00" fill="#000000"></text>
<polyline fill="none" stroke="#000000" points="36.2231,-467.9 323.7769,-467.9 "/>
<text text-anchor="start" x="44.2231" y="-451.3" font-family="Times,serif" font-size="14.00" fill="#000000">FRAME.0.FRAME_BASE.PARENT = D.1812;</text>
<text text-anchor="middle" x="180" y="-434.5" font-family="Times,serif" font-size="14.00" fill="#000000"></text>
<polyline fill="none" stroke="#000000" points="36.2231,-426.3 323.7769,-426.3 "/>
<text text-anchor="start" x="44.2231" y="-409.7" font-family="Times,serif" font-size="14.00" fill="#000000">D.1803 = 0;</text>
<text text-anchor="middle" x="180" y="-392.9" font-family="Times,serif" font-size="14.00" fill="#000000"></text>
</g>
<!-- fn_0_basic_block_0&#45;&gt;fn_0_basic_block_2 -->
<g id="edge1" class="edge">
<title>fn_0_basic_block_0:s-&gt;fn_0_basic_block_2:n</title>
<path fill="none" stroke="#0000ff" stroke-width="2" d="M180,-667.2C180,-630.4297 180,-618.7594 180,-586.4993"/>
<polygon fill="#0000ff" stroke="#0000ff" stroke-width="2" points="183.5001,-586.3 180,-576.3 176.5001,-586.3 183.5001,-586.3"/>
<text text-anchor="middle" x="193.9909" y="-617.6" font-family="Times,serif" font-size="14.00" fill="#000000">[0%]</text>
</g>
<!-- fn_0_basic_block_3 -->
<g id="node4" class="node">
<title>fn_0_basic_block_3</title>
<polygon fill="#d3d3d3" stroke="#000000" points="129.8929,-143.3 129.8929,-292.9 230.1071,-292.9 230.1071,-143.3 129.8929,-143.3"/>
<text text-anchor="middle" x="180" y="-276.3" font-family="Times,serif" font-size="14.00" fill="#000000">FREQ:0</text>
<polyline fill="none" stroke="#000000" points="129.8929,-268.1 230.1071,-268.1 "/>
<text text-anchor="start" x="137.8929" y="-251.5" font-family="Times,serif" font-size="14.00" fill="#000000">&lt;bb 3&gt;:</text>
<text text-anchor="middle" x="180" y="-234.7" font-family="Times,serif" font-size="14.00" fill="#000000"></text>
<polyline fill="none" stroke="#000000" points="129.8929,-226.5 230.1071,-226.5 "/>
<text text-anchor="start" x="137.8929" y="-209.9" font-family="Times,serif" font-size="14.00" fill="#000000">&lt;L0&gt; [0.00%]:</text>
<text text-anchor="middle" x="180" y="-193.1" font-family="Times,serif" font-size="14.00" fill="#000000"></text>
<polyline fill="none" stroke="#000000" points="129.8929,-184.9 230.1071,-184.9 "/>
<text text-anchor="start" x="137.8929" y="-168.3" font-family="Times,serif" font-size="14.00" fill="#000000">return D.1803;</text>
<text text-anchor="middle" x="180" y="-151.5" font-family="Times,serif" font-size="14.00" fill="#000000"></text>
</g>
<!-- fn_0_basic_block_2&#45;&gt;fn_0_basic_block_3 -->
<g id="edge2" class="edge">
<title>fn_0_basic_block_2:s-&gt;fn_0_basic_block_3:n</title>
<path fill="none" stroke="#0000ff" stroke-width="2" d="M180,-384.3C180,-347.4083 180,-335.6996 180,-303.3329"/>
<polygon fill="#0000ff" stroke="#0000ff" stroke-width="2" points="183.5001,-303.1 180,-293.1 176.5001,-303.1 183.5001,-303.1"/>
<text text-anchor="middle" x="193.9909" y="-334.6" font-family="Times,serif" font-size="14.00" fill="#000000">[0%]</text>
</g>
<!-- fn_0_basic_block_3&#45;&gt;fn_0_basic_block_1 -->
<g id="edge3" class="edge">
<title>fn_0_basic_block_3:s-&gt;fn_0_basic_block_1:n</title>
<path fill="none" stroke="#000000" stroke-width="2" d="M180,-143.1C180,-106.2488 180,-94.5528 180,-62.2217"/>
<polygon fill="#000000" stroke="#000000" stroke-width="2" points="183.5001,-62 180,-52 176.5001,-62 183.5001,-62"/>
<text text-anchor="middle" x="193.9909" y="-93.2" font-family="Times,serif" font-size="14.00" fill="#000000">[0%]</text>
</g>
</g>
</svg>