<?xml version="1.0" encoding="UTF-8" standalone="no"?><!DOCTYPE svg PUBLIC "-//W3C//DTD SVG 1.1//EN" "http://www.w3.org/Graphics/SVG/1.1/DTD/svg11.dtd"><!-- Generated by graphviz version 2.40.1 (20161225.0304)
 --><!-- Title: A&#45;3.c.011t.cfg Pages: 1 --><svg xmlns="http://www.w3.org/2000/svg" xmlns:xlink="http://www.w3.org/1999/xlink" width="622pt" height="2540pt" viewBox="0.00 0.00 621.98 2540.20">
<g id="graph0" class="graph" transform="scale(1 1) rotate(0) translate(4 2536.2)">
<title>A-3.c.011t.cfg</title>
<polygon fill="#ffffff" stroke="transparent" points="-4,4 -4,-2536.2 617.9818,-2536.2 617.9818,4 -4,4"/>
<g id="clust1" class="cluster">
<title>cluster_main</title>
<polygon fill="none" stroke="#000000" stroke-dasharray="5,2" points="8,-8 8,-2524.2 576,-2524.2 576,-8 8,-8"/>
<text text-anchor="middle" x="292" y="-2507.6" font-family="Times,serif" font-size="14.00" fill="#000000">main ()</text>
</g>
<g id="clust2" class="cluster">
<title>cluster_0_2</title>
<polygon fill="#e0e0e0" stroke="#006400" stroke-width="2" points="144,-16 144,-1668.4 396,-1668.4 396,-16 144,-16"/>
<text text-anchor="middle" x="169.6953" y="-1651.8" font-family="Times,serif" font-size="14.00" fill="#000000">loop 2</text>
</g>
<g id="clust3" class="cluster">
<title>cluster_0_3</title>
<polygon fill="#c4c4c4" stroke="#006400" stroke-width="2" points="152,-24 152,-843.2 316,-843.2 316,-24 152,-24"/>
<text text-anchor="middle" x="177.6953" y="-826.6" font-family="Times,serif" font-size="14.00" fill="#000000">loop 3</text>
</g>
<g id="clust4" class="cluster">
<title>cluster_0_1</title>
<polygon fill="#e0e0e0" stroke="#006400" stroke-width="2" points="404,-1493.4 404,-2158 568,-2158 568,-1493.4 404,-1493.4"/>
<text text-anchor="middle" x="429.6953" y="-2141.4" font-family="Times,serif" font-size="14.00" fill="#000000">loop 1</text>
</g>
<!-- fn_0_basic_block_8 -->
<g id="node1" class="node">
<title>fn_0_basic_block_8</title>
<polygon fill="#d3d3d3" stroke="#000000" points="159.9739,-651.5 159.9739,-809.9 308.0261,-809.9 308.0261,-651.5 159.9739,-651.5"/>
<text text-anchor="middle" x="234" y="-793.3" font-family="Times,serif" font-size="14.00" fill="#000000">FREQ:0</text>
<polyline fill="none" stroke="#000000" points="159.9739,-785.1 308.0261,-785.1 "/>
<text text-anchor="start" x="167.9739" y="-768.5" font-family="Times,serif" font-size="14.00" fill="#000000">&lt;bb 8&gt;:</text>
<text text-anchor="middle" x="234" y="-751.7" font-family="Times,serif" font-size="14.00" fill="#000000"></text>
<polyline fill="none" stroke="#000000" points="159.9739,-743.5 308.0261,-743.5 "/>
<text text-anchor="start" x="167.9739" y="-726.9" font-family="Times,serif" font-size="14.00" fill="#000000">if (j &lt;= 49)</text>
<text text-anchor="start" x="167.9739" y="-710.1" font-family="Times,serif" font-size="14.00" fill="#000000">  goto &lt;bb 7&gt;; [0.00%]</text>
<text text-anchor="start" x="167.9739" y="-693.3" font-family="Times,serif" font-size="14.00" fill="#000000">else</text>
<text text-anchor="start" x="167.9739" y="-676.5" font-family="Times,serif" font-size="14.00" fill="#000000">  goto &lt;bb 9&gt;; [0.00%]</text>
<text text-anchor="middle" x="234" y="-659.7" font-family="Times,serif" font-size="14.00" fill="#000000"></text>
</g>
<!-- fn_0_basic_block_7 -->
<g id="node2" class="node">
<title>fn_0_basic_block_7</title>
<polygon fill="#d3d3d3" stroke="#000000" points="159.8249,-32.5 159.8249,-223.7 270.1751,-223.7 270.1751,-32.5 159.8249,-32.5"/>
<text text-anchor="middle" x="215" y="-207.1" font-family="Times,serif" font-size="14.00" fill="#000000">FREQ:0</text>
<polyline fill="none" stroke="#000000" points="159.8249,-198.9 270.1751,-198.9 "/>
<text text-anchor="start" x="167.8249" y="-182.3" font-family="Times,serif" font-size="14.00" fill="#000000">&lt;bb 7&gt;:</text>
<text text-anchor="middle" x="215" y="-165.5" font-family="Times,serif" font-size="14.00" fill="#000000"></text>
<polyline fill="none" stroke="#000000" points="159.8249,-157.3 270.1751,-157.3 "/>
<text text-anchor="start" x="167.8249" y="-140.7" font-family="Times,serif" font-size="14.00" fill="#000000">_1 = i * j;</text>
<text text-anchor="middle" x="215" y="-123.9" font-family="Times,serif" font-size="14.00" fill="#000000"></text>
<polyline fill="none" stroke="#000000" points="159.8249,-115.7 270.1751,-115.7 "/>
<text text-anchor="start" x="167.8249" y="-99.1" font-family="Times,serif" font-size="14.00" fill="#000000">sum = sum + _1;</text>
<text text-anchor="middle" x="215" y="-82.3" font-family="Times,serif" font-size="14.00" fill="#000000"></text>
<polyline fill="none" stroke="#000000" points="159.8249,-74.1 270.1751,-74.1 "/>
<text text-anchor="start" x="167.8249" y="-57.5" font-family="Times,serif" font-size="14.00" fill="#000000">j = j + 1;</text>
<text text-anchor="middle" x="215" y="-40.7" font-family="Times,serif" font-size="14.00" fill="#000000"></text>
</g>
<!-- fn_0_basic_block_8&#45;&gt;fn_0_basic_block_7 -->
<g id="edge9" class="edge">
<title>fn_0_basic_block_8:s-&gt;fn_0_basic_block_7:n</title>
<path fill="none" stroke="#000000" stroke-width="2" d="M234,-651.7C234,-632.536 214,-632.664 214,-613.5 214,-613.5 214,-613.5 214,-261.7 214,-248.901 214.5862,-243.4593 214.861,-234.109"/>
<polygon fill="#000000" stroke="#000000" stroke-width="2" points="218.3607,-234.1477 215,-224.1 211.3613,-234.0504 218.3607,-234.1477"/>
<text text-anchor="middle" x="227.9909" y="-425.5" font-family="Times,serif" font-size="14.00" fill="#000000">[0%]</text>
</g>
<!-- fn_0_basic_block_9 -->
<g id="node5" class="node">
<title>fn_0_basic_block_9</title>
<polygon fill="#d3d3d3" stroke="#000000" points="323.7695,-375.7 323.7695,-483.7 388.2305,-483.7 388.2305,-375.7 323.7695,-375.7"/>
<text text-anchor="middle" x="356" y="-467.1" font-family="Times,serif" font-size="14.00" fill="#000000">FREQ:0</text>
<polyline fill="none" stroke="#000000" points="323.7695,-458.9 388.2305,-458.9 "/>
<text text-anchor="start" x="331.7695" y="-442.3" font-family="Times,serif" font-size="14.00" fill="#000000">&lt;bb 9&gt;:</text>
<text text-anchor="middle" x="356" y="-425.5" font-family="Times,serif" font-size="14.00" fill="#000000"></text>
<polyline fill="none" stroke="#000000" points="323.7695,-417.3 388.2305,-417.3 "/>
<text text-anchor="start" x="331.7695" y="-400.7" font-family="Times,serif" font-size="14.00" fill="#000000">i = i + 1;</text>
<text text-anchor="middle" x="356" y="-383.9" font-family="Times,serif" font-size="14.00" fill="#000000"></text>
</g>
<!-- fn_0_basic_block_8&#45;&gt;fn_0_basic_block_9 -->
<g id="edge10" class="edge">
<title>fn_0_basic_block_8:s-&gt;fn_0_basic_block_9:n</title>
<path fill="none" stroke="#000000" stroke-width="2" d="M234,-651.7C234,-626.4673 276,-638.7327 276,-613.5 276,-613.5 276,-613.5 276,-521.7 276,-505.3244 331.3821,-503.5173 349.987,-492.0358"/>
<polygon fill="#000000" stroke="#000000" stroke-width="2" points="352.9883,-493.8578 356,-483.7 347.3112,-489.7626 352.9883,-493.8578"/>
<text text-anchor="middle" x="289.9909" y="-563.4" font-family="Times,serif" font-size="14.00" fill="#000000">[0%]</text>
</g>
<!-- fn_0_basic_block_7&#45;&gt;fn_0_basic_block_8 -->
<g id="edge8" class="edge">
<title>fn_0_basic_block_7:s-&gt;fn_0_basic_block_8:n</title>
<path fill="none" stroke="#0000ff" stroke-width="2" stroke-dasharray="1,5" d="M215,-32.1C215,-32.1 270.1751,-224.2 270.1751,-224.2 267.0414,-294.6311 245.1337,-469.7689 242,-540.2 240.1666,-581.4061 217.7388,-600.3937 243,-633 261.3654,-656.7055 289.8693,-627.1344 308.0261,-651 308.0261,-651 254.3454,-766.0827 238.409,-800.2479"/>
<polygon fill="#0000ff" stroke="#0000ff" stroke-width="2" points="235.0554,-799.1579 234,-809.7 241.3992,-802.117 235.0554,-799.1579"/>
<text text-anchor="middle" x="269.9909" y="-425.5" font-family="Times,serif" font-size="14.00" fill="#000000">[0%]</text>
</g>
<!-- fn_0_basic_block_10 -->
<g id="node3" class="node">
<title>fn_0_basic_block_10</title>
<polygon fill="#d3d3d3" stroke="#000000" points="156.4739,-1476.7 156.4739,-1635.1 311.5261,-1635.1 311.5261,-1476.7 156.4739,-1476.7"/>
<text text-anchor="middle" x="234" y="-1618.5" font-family="Times,serif" font-size="14.00" fill="#000000">FREQ:0</text>
<polyline fill="none" stroke="#000000" points="156.4739,-1610.3 311.5261,-1610.3 "/>
<text text-anchor="start" x="164.4739" y="-1593.7" font-family="Times,serif" font-size="14.00" fill="#000000">&lt;bb 10&gt;:</text>
<text text-anchor="middle" x="234" y="-1576.9" font-family="Times,serif" font-size="14.00" fill="#000000"></text>
<polyline fill="none" stroke="#000000" points="156.4739,-1568.7 311.5261,-1568.7 "/>
<text text-anchor="start" x="164.4739" y="-1552.1" font-family="Times,serif" font-size="14.00" fill="#000000">if (i &lt;= 24)</text>
<text text-anchor="start" x="164.4739" y="-1535.3" font-family="Times,serif" font-size="14.00" fill="#000000">  goto &lt;bb 6&gt;; [0.00%]</text>
<text text-anchor="start" x="164.4739" y="-1518.5" font-family="Times,serif" font-size="14.00" fill="#000000">else</text>
<text text-anchor="start" x="164.4739" y="-1501.7" font-family="Times,serif" font-size="14.00" fill="#000000">  goto &lt;bb 11&gt;; [0.00%]</text>
<text text-anchor="middle" x="234" y="-1484.9" font-family="Times,serif" font-size="14.00" fill="#000000"></text>
</g>
<!-- fn_0_basic_block_6 -->
<g id="node4" class="node">
<title>fn_0_basic_block_6</title>
<polygon fill="#d3d3d3" stroke="#000000" points="163.4739,-1047.9 163.4739,-1172.7 304.5261,-1172.7 304.5261,-1047.9 163.4739,-1047.9"/>
<text text-anchor="middle" x="234" y="-1156.1" font-family="Times,serif" font-size="14.00" fill="#000000">FREQ:0</text>
<polyline fill="none" stroke="#000000" points="163.4739,-1147.9 304.5261,-1147.9 "/>
<text text-anchor="start" x="171.4739" y="-1131.3" font-family="Times,serif" font-size="14.00" fill="#000000">&lt;bb 6&gt;:</text>
<text text-anchor="middle" x="234" y="-1114.5" font-family="Times,serif" font-size="14.00" fill="#000000"></text>
<polyline fill="none" stroke="#000000" points="163.4739,-1106.3 304.5261,-1106.3 "/>
<text text-anchor="start" x="171.4739" y="-1089.7" font-family="Times,serif" font-size="14.00" fill="#000000">j = 0;</text>
<text text-anchor="start" x="171.4739" y="-1072.9" font-family="Times,serif" font-size="14.00" fill="#000000">goto &lt;bb 8&gt;; [0.00%]</text>
<text text-anchor="middle" x="234" y="-1056.1" font-family="Times,serif" font-size="14.00" fill="#000000"></text>
</g>
<!-- fn_0_basic_block_10&#45;&gt;fn_0_basic_block_6 -->
<g id="edge12" class="edge">
<title>fn_0_basic_block_10:s-&gt;fn_0_basic_block_6:n</title>
<path fill="none" stroke="#000000" stroke-width="2" d="M234,-1476.9C234,-1456.4111 234,-1451.2889 234,-1430.8 234,-1430.8 234,-1430.8 234,-1231 234,-1208.7837 234,-1200.7563 234,-1182.7523"/>
<polygon fill="#000000" stroke="#000000" stroke-width="2" points="237.5001,-1182.3 234,-1172.3 230.5001,-1182.3 237.5001,-1182.3"/>
<text text-anchor="middle" x="247.9909" y="-1326.7" font-family="Times,serif" font-size="14.00" fill="#000000">[0%]</text>
</g>
<!-- fn_0_basic_block_11 -->
<g id="node12" class="node">
<title>fn_0_basic_block_11</title>
<polygon fill="#d3d3d3" stroke="#000000" points="44.3041,-1276.9 44.3041,-1384.9 127.6959,-1384.9 127.6959,-1276.9 44.3041,-1276.9"/>
<text text-anchor="middle" x="86" y="-1368.3" font-family="Times,serif" font-size="14.00" fill="#000000">FREQ:0</text>
<polyline fill="none" stroke="#000000" points="44.3041,-1360.1 127.6959,-1360.1 "/>
<text text-anchor="start" x="52.3041" y="-1343.5" font-family="Times,serif" font-size="14.00" fill="#000000">&lt;bb 11&gt;:</text>
<text text-anchor="middle" x="86" y="-1326.7" font-family="Times,serif" font-size="14.00" fill="#000000"></text>
<polyline fill="none" stroke="#000000" points="44.3041,-1318.5 127.6959,-1318.5 "/>
<text text-anchor="start" x="52.3041" y="-1301.9" font-family="Times,serif" font-size="14.00" fill="#000000">D.1809 = 0;</text>
<text text-anchor="middle" x="86" y="-1285.1" font-family="Times,serif" font-size="14.00" fill="#000000"></text>
</g>
<!-- fn_0_basic_block_10&#45;&gt;fn_0_basic_block_11 -->
<g id="edge13" class="edge">
<title>fn_0_basic_block_10:s-&gt;fn_0_basic_block_11:n</title>
<path fill="none" stroke="#000000" stroke-width="2" d="M234,-1476.9C234,-1441.6539 111.3991,-1426.4348 89.3693,-1394.7873"/>
<polygon fill="#000000" stroke="#000000" stroke-width="2" points="92.5385,-1393.2366 86,-1384.9 85.9127,-1395.4945 92.5385,-1393.2366"/>
<text text-anchor="middle" x="194.9909" y="-1426.6" font-family="Times,serif" font-size="14.00" fill="#000000">[0%]</text>
</g>
<!-- fn_0_basic_block_6&#45;&gt;fn_0_basic_block_8 -->
<g id="edge7" class="edge">
<title>fn_0_basic_block_6:s-&gt;fn_0_basic_block_8:n</title>
<path fill="none" stroke="#0000ff" stroke-width="2" d="M234,-1048.3C234,-1022.2111 234,-1015.6889 234,-989.6 234,-989.6 234,-989.6 234,-870.7 234,-847.2955 234,-839.0445 234,-819.7835"/>
<polygon fill="#0000ff" stroke="#0000ff" stroke-width="2" points="237.5001,-819.7 234,-809.7 230.5001,-819.7 237.5001,-819.7"/>
<text text-anchor="middle" x="247.9909" y="-922" font-family="Times,serif" font-size="14.00" fill="#000000">[0%]</text>
</g>
<!-- fn_0_basic_block_9&#45;&gt;fn_0_basic_block_10 -->
<g id="edge11" class="edge">
<title>fn_0_basic_block_9:s-&gt;fn_0_basic_block_10:n</title>
<path fill="none" stroke="#0000ff" stroke-width="2" stroke-dasharray="1,5" d="M356,-375.7C356,-375.7 388.2305,-484.2 388.2305,-484.2 372.8365,-518.5997 325,-503.0129 325,-540.7 325,-613.5 325,-613.5 325,-613.5 325,-840.4975 473.0927,-1475.4506 311.5261,-1634.9 306.7602,-1639.6035 262.5576,-1642.1997 243.1099,-1639.0764"/>
<polygon fill="#0000ff" stroke="#0000ff" stroke-width="2" points="244.5489,-1635.8859 234,-1634.9 241.6317,-1642.249 244.5489,-1635.8859"/>
<text text-anchor="middle" x="370.9909" y="-922" font-family="Times,serif" font-size="14.00" fill="#000000">[0%]</text>
</g>
<!-- fn_0_basic_block_4 -->
<g id="node6" class="node">
<title>fn_0_basic_block_4</title>
<polygon fill="#d3d3d3" stroke="#000000" points="411.9739,-1966.3 411.9739,-2124.7 560.0261,-2124.7 560.0261,-1966.3 411.9739,-1966.3"/>
<text text-anchor="middle" x="486" y="-2108.1" font-family="Times,serif" font-size="14.00" fill="#000000">FREQ:0</text>
<polyline fill="none" stroke="#000000" points="411.9739,-2099.9 560.0261,-2099.9 "/>
<text text-anchor="start" x="419.9739" y="-2083.3" font-family="Times,serif" font-size="14.00" fill="#000000">&lt;bb 4&gt;:</text>
<text text-anchor="middle" x="486" y="-2066.5" font-family="Times,serif" font-size="14.00" fill="#000000"></text>
<polyline fill="none" stroke="#000000" points="411.9739,-2058.3 560.0261,-2058.3 "/>
<text text-anchor="start" x="419.9739" y="-2041.7" font-family="Times,serif" font-size="14.00" fill="#000000">if (sum &lt;= 99)</text>
<text text-anchor="start" x="419.9739" y="-2024.9" font-family="Times,serif" font-size="14.00" fill="#000000">  goto &lt;bb 3&gt;; [0.00%]</text>
<text text-anchor="start" x="419.9739" y="-2008.1" font-family="Times,serif" font-size="14.00" fill="#000000">else</text>
<text text-anchor="start" x="419.9739" y="-1991.3" font-family="Times,serif" font-size="14.00" fill="#000000">  goto &lt;bb 5&gt;; [0.00%]</text>
<text text-anchor="middle" x="486" y="-1974.5" font-family="Times,serif" font-size="14.00" fill="#000000"></text>
</g>
<!-- fn_0_basic_block_3 -->
<g id="node7" class="node">
<title>fn_0_basic_block_3</title>
<polygon fill="#d3d3d3" stroke="#000000" points="416.7722,-1501.9 416.7722,-1609.9 519.2278,-1609.9 519.2278,-1501.9 416.7722,-1501.9"/>
<text text-anchor="middle" x="468" y="-1593.3" font-family="Times,serif" font-size="14.00" fill="#000000">FREQ:0</text>
<polyline fill="none" stroke="#000000" points="416.7722,-1585.1 519.2278,-1585.1 "/>
<text text-anchor="start" x="424.7722" y="-1568.5" font-family="Times,serif" font-size="14.00" fill="#000000">&lt;bb 3&gt;:</text>
<text text-anchor="middle" x="468" y="-1551.7" font-family="Times,serif" font-size="14.00" fill="#000000"></text>
<polyline fill="none" stroke="#000000" points="416.7722,-1543.5 519.2278,-1543.5 "/>
<text text-anchor="start" x="424.7722" y="-1526.9" font-family="Times,serif" font-size="14.00" fill="#000000">sum = sum * 2;</text>
<text text-anchor="middle" x="468" y="-1510.1" font-family="Times,serif" font-size="14.00" fill="#000000"></text>
</g>
<!-- fn_0_basic_block_4&#45;&gt;fn_0_basic_block_3 -->
<g id="edge4" class="edge">
<title>fn_0_basic_block_4:s-&gt;fn_0_basic_block_3:n</title>
<path fill="none" stroke="#000000" stroke-width="2" d="M486,-1966.5C486,-1944.5047 468,-1942.3953 468,-1920.4 468,-1920.4 468,-1920.4 468,-1703.8 468,-1665.6531 468,-1653.6577 468,-1620.0056"/>
<polygon fill="#000000" stroke="#000000" stroke-width="2" points="471.5001,-1619.9 468,-1609.9 464.5001,-1619.9 471.5001,-1619.9"/>
<text text-anchor="middle" x="481.9909" y="-1807.9" font-family="Times,serif" font-size="14.00" fill="#000000">[0%]</text>
</g>
<!-- fn_0_basic_block_5 -->
<g id="node11" class="node">
<title>fn_0_basic_block_5</title>
<polygon fill="#d3d3d3" stroke="#000000" points="159.9739,-1749.7 159.9739,-1874.5 308.0261,-1874.5 308.0261,-1749.7 159.9739,-1749.7"/>
<text text-anchor="middle" x="234" y="-1857.9" font-family="Times,serif" font-size="14.00" fill="#000000">FREQ:0</text>
<polyline fill="none" stroke="#000000" points="159.9739,-1849.7 308.0261,-1849.7 "/>
<text text-anchor="start" x="167.9739" y="-1833.1" font-family="Times,serif" font-size="14.00" fill="#000000">&lt;bb 5&gt;:</text>
<text text-anchor="middle" x="234" y="-1816.3" font-family="Times,serif" font-size="14.00" fill="#000000"></text>
<polyline fill="none" stroke="#000000" points="159.9739,-1808.1 308.0261,-1808.1 "/>
<text text-anchor="start" x="167.9739" y="-1791.5" font-family="Times,serif" font-size="14.00" fill="#000000">i = 0;</text>
<text text-anchor="start" x="167.9739" y="-1774.7" font-family="Times,serif" font-size="14.00" fill="#000000">goto &lt;bb 10&gt;; [0.00%]</text>
<text text-anchor="middle" x="234" y="-1757.9" font-family="Times,serif" font-size="14.00" fill="#000000"></text>
</g>
<!-- fn_0_basic_block_4&#45;&gt;fn_0_basic_block_5 -->
<g id="edge5" class="edge">
<title>fn_0_basic_block_4:s-&gt;fn_0_basic_block_5:n</title>
<path fill="none" stroke="#000000" stroke-width="2" d="M486,-1966.5C486,-1939.473 279.0352,-1910.0385 240.2292,-1882.5601"/>
<polygon fill="#000000" stroke="#000000" stroke-width="2" points="242.7477,-1880.0774 234,-1874.1 237.1108,-1884.2279 242.7477,-1880.0774"/>
<text text-anchor="middle" x="406.9909" y="-1916.2" font-family="Times,serif" font-size="14.00" fill="#000000">[0%]</text>
</g>
<!-- fn_0_basic_block_3&#45;&gt;fn_0_basic_block_4 -->
<g id="edge3" class="edge">
<title>fn_0_basic_block_3:s-&gt;fn_0_basic_block_4:n</title>
<path fill="none" stroke="#0000ff" stroke-width="2" stroke-dasharray="1,5" d="M468,-1501.9C468,-1490.516 510.8329,-1494.211 519.2278,-1501.9 671.8565,-1641.6947 550.9511,-1759.0255 560.0261,-1965.8 560.0261,-1965.8 506.3454,-2080.8827 490.409,-2115.0479"/>
<polygon fill="#0000ff" stroke="#0000ff" stroke-width="2" points="487.0554,-2113.9579 486,-2124.5 493.3992,-2116.917 487.0554,-2113.9579"/>
<text text-anchor="middle" x="599.9909" y="-1807.9" font-family="Times,serif" font-size="14.00" fill="#000000">[0%]</text>
</g>
<!-- fn_0_basic_block_0 -->
<g id="node8" class="node">
<title>fn_0_basic_block_0</title>
<polygon fill="#ffffff" stroke="#000000" points="486,-2491.4 424.76,-2473.4 486,-2455.4 547.24,-2473.4 486,-2491.4"/>
<polyline fill="none" stroke="#000000" points="436.273,-2476.784 436.273,-2470.016 "/>
<polyline fill="none" stroke="#000000" points="474.487,-2458.784 497.513,-2458.784 "/>
<polyline fill="none" stroke="#000000" points="535.727,-2470.016 535.727,-2476.784 "/>
<polyline fill="none" stroke="#000000" points="497.513,-2488.016 474.487,-2488.016 "/>
<text text-anchor="middle" x="486" y="-2469.2" font-family="Times,serif" font-size="14.00" fill="#000000">ENTRY</text>
</g>
<!-- fn_0_basic_block_1 -->
<g id="node9" class="node">
<title>fn_0_basic_block_1</title>
<polygon fill="#ffffff" stroke="#000000" points="86,-944.2 39.1002,-926.2 86,-908.2 132.8998,-926.2 86,-944.2"/>
<polyline fill="none" stroke="#000000" points="50.3034,-930.4998 50.3034,-921.9002 "/>
<polyline fill="none" stroke="#000000" points="74.7968,-912.4998 97.2032,-912.4998 "/>
<polyline fill="none" stroke="#000000" points="121.6966,-921.9002 121.6966,-930.4998 "/>
<polyline fill="none" stroke="#000000" points="97.2032,-939.9002 74.7968,-939.9002 "/>
<text text-anchor="middle" x="86" y="-922" font-family="Times,serif" font-size="14.00" fill="#000000">EXIT</text>
</g>
<!-- fn_0_basic_block_0&#45;&gt;fn_0_basic_block_1 -->
<!-- fn_0_basic_block_2 -->
<g id="node10" class="node">
<title>fn_0_basic_block_2</title>
<polygon fill="#d3d3d3" stroke="#000000" points="415.4739,-2239.3 415.4739,-2364.1 556.5261,-2364.1 556.5261,-2239.3 415.4739,-2239.3"/>
<text text-anchor="middle" x="486" y="-2347.5" font-family="Times,serif" font-size="14.00" fill="#000000">FREQ:0</text>
<polyline fill="none" stroke="#000000" points="415.4739,-2339.3 556.5261,-2339.3 "/>
<text text-anchor="start" x="423.4739" y="-2322.7" font-family="Times,serif" font-size="14.00" fill="#000000">&lt;bb 2&gt;:</text>
<text text-anchor="middle" x="486" y="-2305.9" font-family="Times,serif" font-size="14.00" fill="#000000"></text>
<polyline fill="none" stroke="#000000" points="415.4739,-2297.7 556.5261,-2297.7 "/>
<text text-anchor="start" x="423.4739" y="-2281.1" font-family="Times,serif" font-size="14.00" fill="#000000">sum = 0;</text>
<text text-anchor="start" x="423.4739" y="-2264.3" font-family="Times,serif" font-size="14.00" fill="#000000">goto &lt;bb 4&gt;; [0.00%]</text>
<text text-anchor="middle" x="486" y="-2247.5" font-family="Times,serif" font-size="14.00" fill="#000000"></text>
</g>
<!-- fn_0_basic_block_0&#45;&gt;fn_0_basic_block_2 -->
<g id="edge1" class="edge">
<title>fn_0_basic_block_0:s-&gt;fn_0_basic_block_2:n</title>
<path fill="none" stroke="#0000ff" stroke-width="2" d="M486,-2455.4C486,-2418.3061 486,-2406.5331 486,-2373.989"/>
<polygon fill="#0000ff" stroke="#0000ff" stroke-width="2" points="489.5001,-2373.7 486,-2363.7 482.5001,-2373.7 489.5001,-2373.7"/>
<text text-anchor="middle" x="499.9909" y="-2405.8" font-family="Times,serif" font-size="14.00" fill="#000000">[0%]</text>
</g>
<!-- fn_0_basic_block_2&#45;&gt;fn_0_basic_block_4 -->
<g id="edge2" class="edge">
<title>fn_0_basic_block_2:s-&gt;fn_0_basic_block_4:n</title>
<path fill="none" stroke="#0000ff" stroke-width="2" d="M486,-2239.7C486,-2192.1 486,-2177.6898 486,-2134.7572"/>
<polygon fill="#0000ff" stroke="#0000ff" stroke-width="2" points="489.5001,-2134.5 486,-2124.5 482.5001,-2134.5 489.5001,-2134.5"/>
<text text-anchor="middle" x="499.9909" y="-2189.2" font-family="Times,serif" font-size="14.00" fill="#000000">[0%]</text>
</g>
<!-- fn_0_basic_block_5&#45;&gt;fn_0_basic_block_10 -->
<g id="edge6" class="edge">
<title>fn_0_basic_block_5:s-&gt;fn_0_basic_block_10:n</title>
<path fill="none" stroke="#0000ff" stroke-width="2" d="M234,-1750.1C234,-1702.5 234,-1688.0898 234,-1645.1572"/>
<polygon fill="#0000ff" stroke="#0000ff" stroke-width="2" points="237.5001,-1644.9 234,-1634.9 230.5001,-1644.9 237.5001,-1644.9"/>
<text text-anchor="middle" x="247.9909" y="-1699.6" font-family="Times,serif" font-size="14.00" fill="#000000">[0%]</text>
</g>
<!-- fn_0_basic_block_12 -->
<g id="node13" class="node">
<title>fn_0_basic_block_12</title>
<polygon fill="#d3d3d3" stroke="#000000" points="35.8929,-1035.5 35.8929,-1185.1 136.1071,-1185.1 136.1071,-1035.5 35.8929,-1035.5"/>
<text text-anchor="middle" x="86" y="-1168.5" font-family="Times,serif" font-size="14.00" fill="#000000">FREQ:0</text>
<polyline fill="none" stroke="#000000" points="35.8929,-1160.3 136.1071,-1160.3 "/>
<text text-anchor="start" x="43.8929" y="-1143.7" font-family="Times,serif" font-size="14.00" fill="#000000">&lt;bb 12&gt;:</text>
<text text-anchor="middle" x="86" y="-1126.9" font-family="Times,serif" font-size="14.00" fill="#000000"></text>
<polyline fill="none" stroke="#000000" points="35.8929,-1118.7 136.1071,-1118.7 "/>
<text text-anchor="start" x="43.8929" y="-1102.1" font-family="Times,serif" font-size="14.00" fill="#000000">&lt;L9&gt; [0.00%]:</text>
<text text-anchor="middle" x="86" y="-1085.3" font-family="Times,serif" font-size="14.00" fill="#000000"></text>
<polyline fill="none" stroke="#000000" points="35.8929,-1077.1 136.1071,-1077.1 "/>
<text text-anchor="start" x="43.8929" y="-1060.5" font-family="Times,serif" font-size="14.00" fill="#000000">return D.1809;</text>
<text text-anchor="middle" x="86" y="-1043.7" font-family="Times,serif" font-size="14.00" fill="#000000"></text>
</g>
<!-- fn_0_basic_block_11&#45;&gt;fn_0_basic_block_12 -->
<g id="edge14" class="edge">
<title>fn_0_basic_block_11:s-&gt;fn_0_basic_block_12:n</title>
<path fill="none" stroke="#0000ff" stroke-width="2" d="M86,-1276.9C86,-1239.8465 86,-1228.0864 86,-1195.5778"/>
<polygon fill="#0000ff" stroke="#0000ff" stroke-width="2" points="89.5001,-1195.3 86,-1185.3 82.5001,-1195.3 89.5001,-1195.3"/>
<text text-anchor="middle" x="99.9909" y="-1226.8" font-family="Times,serif" font-size="14.00" fill="#000000">[0%]</text>
</g>
<!-- fn_0_basic_block_12&#45;&gt;fn_0_basic_block_1 -->
<g id="edge15" class="edge">
<title>fn_0_basic_block_12:s-&gt;fn_0_basic_block_1:n</title>
<path fill="none" stroke="#000000" stroke-width="2" d="M86,-1035.3C86,-998.4488 86,-986.7528 86,-954.4217"/>
<polygon fill="#000000" stroke="#000000" stroke-width="2" points="89.5001,-954.2 86,-944.2 82.5001,-954.2 89.5001,-954.2"/>
<text text-anchor="middle" x="99.9909" y="-985.4" font-family="Times,serif" font-size="14.00" fill="#000000">[0%]</text>
</g>
</g>
</svg>