<?xml version="1.0" encoding="UTF-8" standalone="no"?><!DOCTYPE svg PUBLIC "-//W3C//DTD SVG 1.1//EN" "http://www.w3.org/Graphics/SVG/1.1/DTD/svg11.dtd"><!-- Generated by graphviz version 2.40.1 (20161225.0304)
 --><!-- Title: A&#45;4.c.011t.cfg Pages: 1 --><svg xmlns="http://www.w3.org/2000/svg" xmlns:xlink="http://www.w3.org/1999/xlink" width="410pt" height="1533pt" viewBox="0.00 0.00 409.98 1532.80">
<g id="graph0" class="graph" transform="scale(1 1) rotate(0) translate(4 1528.8)">
<title>A-4.c.011t.cfg</title>
<polygon fill="#ffffff" stroke="transparent" points="-4,4 -4,-1528.8 405.9818,-1528.8 405.9818,4 -4,4"/>
<g id="clust1" class="cluster">
<title>cluster_main</title>
<polygon fill="none" stroke="#000000" stroke-dasharray="5,2" points="8,-8 8,-1516.8 336,-1516.8 336,-8 8,-8"/>
<text text-anchor="middle" x="172" y="-1500.2" font-family="Times,serif" font-size="14.00" fill="#000000">main ()</text>
</g>
<g id="clust2" class="cluster">
<title>cluster_0_1</title>
<polygon fill="#e0e0e0" stroke="#006400" stroke-width="2" points="164,-134.8 164,-1025.8 328,-1025.8 328,-134.8 164,-134.8"/>
<text text-anchor="middle" x="189.6953" y="-1009.2" font-family="Times,serif" font-size="14.00" fill="#000000">loop 1</text>
</g>
<!-- fn_0_basic_block_4 -->
<g id="node1" class="node">
<title>fn_0_basic_block_4</title>
<polygon fill="#d3d3d3" stroke="#000000" points="171.9739,-834.1 171.9739,-992.5 320.0261,-992.5 320.0261,-834.1 171.9739,-834.1"/>
<text text-anchor="middle" x="246" y="-975.9" font-family="Times,serif" font-size="14.00" fill="#000000">FREQ:0</text>
<polyline fill="none" stroke="#000000" points="171.9739,-967.7 320.0261,-967.7 "/>
<text text-anchor="start" x="179.9739" y="-951.1" font-family="Times,serif" font-size="14.00" fill="#000000">&lt;bb 4&gt;:</text>
<text text-anchor="middle" x="246" y="-934.3" font-family="Times,serif" font-size="14.00" fill="#000000"></text>
<polyline fill="none" stroke="#000000" points="171.9739,-926.1 320.0261,-926.1 "/>
<text text-anchor="start" x="179.9739" y="-909.5" font-family="Times,serif" font-size="14.00" fill="#000000">if (i &lt;= 2)</text>
<text text-anchor="start" x="179.9739" y="-892.7" font-family="Times,serif" font-size="14.00" fill="#000000">  goto &lt;bb 3&gt;; [0.00%]</text>
<text text-anchor="start" x="179.9739" y="-875.9" font-family="Times,serif" font-size="14.00" fill="#000000">else</text>
<text text-anchor="start" x="179.9739" y="-859.1" font-family="Times,serif" font-size="14.00" fill="#000000">  goto &lt;bb 5&gt;; [0.00%]</text>
<text text-anchor="middle" x="246" y="-842.3" font-family="Times,serif" font-size="14.00" fill="#000000"></text>
</g>
<!-- fn_0_basic_block_3 -->
<g id="node2" class="node">
<title>fn_0_basic_block_3</title>
<polygon fill="#d3d3d3" stroke="#000000" points="193.5015,-143.3 193.5015,-334.5 262.4985,-334.5 262.4985,-143.3 193.5015,-143.3"/>
<text text-anchor="middle" x="228" y="-317.9" font-family="Times,serif" font-size="14.00" fill="#000000">FREQ:0</text>
<polyline fill="none" stroke="#000000" points="193.5015,-309.7 262.4985,-309.7 "/>
<text text-anchor="start" x="201.5015" y="-293.1" font-family="Times,serif" font-size="14.00" fill="#000000">&lt;bb 3&gt;:</text>
<text text-anchor="middle" x="228" y="-276.3" font-family="Times,serif" font-size="14.00" fill="#000000"></text>
<polyline fill="none" stroke="#000000" points="193.5015,-268.1 262.4985,-268.1 "/>
<text text-anchor="start" x="201.5015" y="-251.5" font-family="Times,serif" font-size="14.00" fill="#000000">_1 = b[i];</text>
<text text-anchor="middle" x="228" y="-234.7" font-family="Times,serif" font-size="14.00" fill="#000000"></text>
<polyline fill="none" stroke="#000000" points="193.5015,-226.5 262.4985,-226.5 "/>
<text text-anchor="start" x="201.5015" y="-209.9" font-family="Times,serif" font-size="14.00" fill="#000000">a[i] = _1;</text>
<text text-anchor="middle" x="228" y="-193.1" font-family="Times,serif" font-size="14.00" fill="#000000"></text>
<polyline fill="none" stroke="#000000" points="193.5015,-184.9 262.4985,-184.9 "/>
<text text-anchor="start" x="201.5015" y="-168.3" font-family="Times,serif" font-size="14.00" fill="#000000">i = i + 1;</text>
<text text-anchor="middle" x="228" y="-151.5" font-family="Times,serif" font-size="14.00" fill="#000000"></text>
</g>
<!-- fn_0_basic_block_4&#45;&gt;fn_0_basic_block_3 -->
<g id="edge4" class="edge">
<title>fn_0_basic_block_4:s-&gt;fn_0_basic_block_3:n</title>
<path fill="none" stroke="#000000" stroke-width="2" d="M246,-834.3C246,-812.3047 228,-810.1953 228,-788.2 228,-788.2 228,-788.2 228,-380.4 228,-364.1274 228,-357.6756 228,-345.2393"/>
<polygon fill="#000000" stroke="#000000" stroke-width="2" points="231.5001,-344.9 228,-334.9 224.5001,-344.9 231.5001,-344.9"/>
<text text-anchor="middle" x="241.9909" y="-580.1" font-family="Times,serif" font-size="14.00" fill="#000000">[0%]</text>
</g>
<!-- fn_0_basic_block_5 -->
<g id="node6" class="node">
<title>fn_0_basic_block_5</title>
<polygon fill="#d3d3d3" stroke="#000000" points="36.1097,-426.3 36.1097,-742.3 155.8903,-742.3 155.8903,-426.3 36.1097,-426.3"/>
<text text-anchor="middle" x="96" y="-725.7" font-family="Times,serif" font-size="14.00" fill="#000000">FREQ:0</text>
<polyline fill="none" stroke="#000000" points="36.1097,-717.5 155.8903,-717.5 "/>
<text text-anchor="start" x="44.1097" y="-700.9" font-family="Times,serif" font-size="14.00" fill="#000000">&lt;bb 5&gt;:</text>
<text text-anchor="middle" x="96" y="-684.1" font-family="Times,serif" font-size="14.00" fill="#000000"></text>
<polyline fill="none" stroke="#000000" points="36.1097,-675.9 155.8903,-675.9 "/>
<text text-anchor="start" x="44.1097" y="-659.3" font-family="Times,serif" font-size="14.00" fill="#000000">p = &amp;a;</text>
<text text-anchor="middle" x="96" y="-642.5" font-family="Times,serif" font-size="14.00" fill="#000000"></text>
<polyline fill="none" stroke="#000000" points="36.1097,-634.3 155.8903,-634.3 "/>
<text text-anchor="start" x="44.1097" y="-617.7" font-family="Times,serif" font-size="14.00" fill="#000000">_2 = p + 8;</text>
<text text-anchor="middle" x="96" y="-600.9" font-family="Times,serif" font-size="14.00" fill="#000000"></text>
<polyline fill="none" stroke="#000000" points="36.1097,-592.7 155.8903,-592.7 "/>
<text text-anchor="start" x="44.1097" y="-576.1" font-family="Times,serif" font-size="14.00" fill="#000000">*_2 = 5;</text>
<text text-anchor="middle" x="96" y="-559.3" font-family="Times,serif" font-size="14.00" fill="#000000"></text>
<polyline fill="none" stroke="#000000" points="36.1097,-551.1 155.8903,-551.1 "/>
<text text-anchor="start" x="44.1097" y="-534.5" font-family="Times,serif" font-size="14.00" fill="#000000">a = {CLOBBER};</text>
<text text-anchor="middle" x="96" y="-517.7" font-family="Times,serif" font-size="14.00" fill="#000000"></text>
<polyline fill="none" stroke="#000000" points="36.1097,-509.5 155.8903,-509.5 "/>
<text text-anchor="start" x="44.1097" y="-492.9" font-family="Times,serif" font-size="14.00" fill="#000000">b = {CLOBBER};</text>
<text text-anchor="middle" x="96" y="-476.1" font-family="Times,serif" font-size="14.00" fill="#000000"></text>
<polyline fill="none" stroke="#000000" points="36.1097,-467.9 155.8903,-467.9 "/>
<text text-anchor="start" x="44.1097" y="-451.3" font-family="Times,serif" font-size="14.00" fill="#000000">D.1804 = 0;</text>
<text text-anchor="middle" x="96" y="-434.5" font-family="Times,serif" font-size="14.00" fill="#000000"></text>
</g>
<!-- fn_0_basic_block_4&#45;&gt;fn_0_basic_block_5 -->
<g id="edge5" class="edge">
<title>fn_0_basic_block_4:s-&gt;fn_0_basic_block_5:n</title>
<path fill="none" stroke="#000000" stroke-width="2" d="M246,-834.3C246,-825.8225 133.1979,-770.2145 103.2348,-749.2179"/>
<polygon fill="#000000" stroke="#000000" stroke-width="2" points="105.6465,-746.6814 96,-742.3 100.8088,-751.7407 105.6465,-746.6814"/>
<text text-anchor="middle" x="198.9909" y="-784" font-family="Times,serif" font-size="14.00" fill="#000000">[0%]</text>
</g>
<!-- fn_0_basic_block_3&#45;&gt;fn_0_basic_block_4 -->
<g id="edge3" class="edge">
<title>fn_0_basic_block_3:s-&gt;fn_0_basic_block_4:n</title>
<path fill="none" stroke="#0000ff" stroke-width="2" stroke-dasharray="1,5" d="M228,-142.9C228,-135.2337 256.8571,-137.7089 262.4985,-142.9 489.1756,-351.4823 307.2311,-525.8251 320.0261,-833.6 320.0261,-833.6 266.3454,-948.6827 250.409,-982.8479"/>
<polygon fill="#0000ff" stroke="#0000ff" stroke-width="2" points="247.0554,-981.7579 246,-992.3 253.3992,-984.717 247.0554,-981.7579"/>
<text text-anchor="middle" x="387.9909" y="-580.1" font-family="Times,serif" font-size="14.00" fill="#000000">[0%]</text>
</g>
<!-- fn_0_basic_block_0 -->
<g id="node3" class="node">
<title>fn_0_basic_block_0</title>
<polygon fill="#ffffff" stroke="#000000" points="246,-1484 184.76,-1466 246,-1448 307.24,-1466 246,-1484"/>
<polyline fill="none" stroke="#000000" points="196.273,-1469.384 196.273,-1462.616 "/>
<polyline fill="none" stroke="#000000" points="234.487,-1451.384 257.513,-1451.384 "/>
<polyline fill="none" stroke="#000000" points="295.727,-1462.616 295.727,-1469.384 "/>
<polyline fill="none" stroke="#000000" points="257.513,-1480.616 234.487,-1480.616 "/>
<text text-anchor="middle" x="246" y="-1461.8" font-family="Times,serif" font-size="14.00" fill="#000000">ENTRY</text>
</g>
<!-- fn_0_basic_block_1 -->
<g id="node4" class="node">
<title>fn_0_basic_block_1</title>
<polygon fill="#ffffff" stroke="#000000" points="96,-52 49.1002,-34 96,-16 142.8998,-34 96,-52"/>
<polyline fill="none" stroke="#000000" points="60.3034,-38.2998 60.3034,-29.7002 "/>
<polyline fill="none" stroke="#000000" points="84.7968,-20.2998 107.2032,-20.2998 "/>
<polyline fill="none" stroke="#000000" points="131.6966,-29.7002 131.6966,-38.2998 "/>
<polyline fill="none" stroke="#000000" points="107.2032,-47.7002 84.7968,-47.7002 "/>
<text text-anchor="middle" x="96" y="-29.8" font-family="Times,serif" font-size="14.00" fill="#000000">EXIT</text>
</g>
<!-- fn_0_basic_block_0&#45;&gt;fn_0_basic_block_1 -->
<!-- fn_0_basic_block_2 -->
<g id="node5" class="node">
<title>fn_0_basic_block_2</title>
<polygon fill="#d3d3d3" stroke="#000000" points="175.4739,-1107.1 175.4739,-1356.7 316.5261,-1356.7 316.5261,-1107.1 175.4739,-1107.1"/>
<text text-anchor="middle" x="246" y="-1340.1" font-family="Times,serif" font-size="14.00" fill="#000000">FREQ:0</text>
<polyline fill="none" stroke="#000000" points="175.4739,-1331.9 316.5261,-1331.9 "/>
<text text-anchor="start" x="183.4739" y="-1315.3" font-family="Times,serif" font-size="14.00" fill="#000000">&lt;bb 2&gt;:</text>
<text text-anchor="middle" x="246" y="-1298.5" font-family="Times,serif" font-size="14.00" fill="#000000"></text>
<polyline fill="none" stroke="#000000" points="175.4739,-1290.3 316.5261,-1290.3 "/>
<text text-anchor="start" x="183.4739" y="-1273.7" font-family="Times,serif" font-size="14.00" fill="#000000">b[0] = 1;</text>
<text text-anchor="middle" x="246" y="-1256.9" font-family="Times,serif" font-size="14.00" fill="#000000"></text>
<polyline fill="none" stroke="#000000" points="175.4739,-1248.7 316.5261,-1248.7 "/>
<text text-anchor="start" x="183.4739" y="-1232.1" font-family="Times,serif" font-size="14.00" fill="#000000">b[1] = 2;</text>
<text text-anchor="middle" x="246" y="-1215.3" font-family="Times,serif" font-size="14.00" fill="#000000"></text>
<polyline fill="none" stroke="#000000" points="175.4739,-1207.1 316.5261,-1207.1 "/>
<text text-anchor="start" x="183.4739" y="-1190.5" font-family="Times,serif" font-size="14.00" fill="#000000">b[2] = 3;</text>
<text text-anchor="middle" x="246" y="-1173.7" font-family="Times,serif" font-size="14.00" fill="#000000"></text>
<polyline fill="none" stroke="#000000" points="175.4739,-1165.5 316.5261,-1165.5 "/>
<text text-anchor="start" x="183.4739" y="-1148.9" font-family="Times,serif" font-size="14.00" fill="#000000">i = 0;</text>
<text text-anchor="start" x="183.4739" y="-1132.1" font-family="Times,serif" font-size="14.00" fill="#000000">goto &lt;bb 4&gt;; [0.00%]</text>
<text text-anchor="middle" x="246" y="-1115.3" font-family="Times,serif" font-size="14.00" fill="#000000"></text>
</g>
<!-- fn_0_basic_block_0&#45;&gt;fn_0_basic_block_2 -->
<g id="edge1" class="edge">
<title>fn_0_basic_block_0:s-&gt;fn_0_basic_block_2:n</title>
<path fill="none" stroke="#0000ff" stroke-width="2" d="M246,-1448C246,-1411.1488 246,-1399.4528 246,-1367.1217"/>
<polygon fill="#0000ff" stroke="#0000ff" stroke-width="2" points="249.5001,-1366.9 246,-1356.9 242.5001,-1366.9 249.5001,-1366.9"/>
<text text-anchor="middle" x="259.9909" y="-1398.4" font-family="Times,serif" font-size="14.00" fill="#000000">[0%]</text>
</g>
<!-- fn_0_basic_block_2&#45;&gt;fn_0_basic_block_4 -->
<g id="edge2" class="edge">
<title>fn_0_basic_block_2:s-&gt;fn_0_basic_block_4:n</title>
<path fill="none" stroke="#0000ff" stroke-width="2" d="M246,-1106.9C246,-1059.5479 246,-1045.2128 246,-1002.5037"/>
<polygon fill="#0000ff" stroke="#0000ff" stroke-width="2" points="249.5001,-1002.3 246,-992.3 242.5001,-1002.3 249.5001,-1002.3"/>
<text text-anchor="middle" x="259.9909" y="-1057" font-family="Times,serif" font-size="14.00" fill="#000000">[0%]</text>
</g>
<!-- fn_0_basic_block_6 -->
<g id="node7" class="node">
<title>fn_0_basic_block_6</title>
<polygon fill="#d3d3d3" stroke="#000000" points="45.8929,-164.1 45.8929,-313.7 146.1071,-313.7 146.1071,-164.1 45.8929,-164.1"/>
<text text-anchor="middle" x="96" y="-297.1" font-family="Times,serif" font-size="14.00" fill="#000000">FREQ:0</text>
<polyline fill="none" stroke="#000000" points="45.8929,-288.9 146.1071,-288.9 "/>
<text text-anchor="start" x="53.8929" y="-272.3" font-family="Times,serif" font-size="14.00" fill="#000000">&lt;bb 6&gt;:</text>
<text text-anchor="middle" x="96" y="-255.5" font-family="Times,serif" font-size="14.00" fill="#000000"></text>
<polyline fill="none" stroke="#000000" points="45.8929,-247.3 146.1071,-247.3 "/>
<text text-anchor="start" x="53.8929" y="-230.7" font-family="Times,serif" font-size="14.00" fill="#000000">&lt;L3&gt; [0.00%]:</text>
<text text-anchor="middle" x="96" y="-213.9" font-family="Times,serif" font-size="14.00" fill="#000000"></text>
<polyline fill="none" stroke="#000000" points="45.8929,-205.7 146.1071,-205.7 "/>
<text text-anchor="start" x="53.8929" y="-189.1" font-family="Times,serif" font-size="14.00" fill="#000000">return D.1804;</text>
<text text-anchor="middle" x="96" y="-172.3" font-family="Times,serif" font-size="14.00" fill="#000000"></text>
</g>
<!-- fn_0_basic_block_5&#45;&gt;fn_0_basic_block_6 -->
<g id="edge6" class="edge">
<title>fn_0_basic_block_5:s-&gt;fn_0_basic_block_6:n</title>
<path fill="none" stroke="#0000ff" stroke-width="2" d="M96,-426.3C96,-379.8569 96,-365.797 96,-323.9079"/>
<polygon fill="#0000ff" stroke="#0000ff" stroke-width="2" points="99.5001,-323.9 96,-313.9 92.5001,-323.9 99.5001,-323.9"/>
<text text-anchor="middle" x="109.9909" y="-376.2" font-family="Times,serif" font-size="14.00" fill="#000000">[0%]</text>
</g>
<!-- fn_0_basic_block_6&#45;&gt;fn_0_basic_block_1 -->
<g id="edge7" class="edge">
<title>fn_0_basic_block_6:s-&gt;fn_0_basic_block_1:n</title>
<path fill="none" stroke="#000000" stroke-width="2" d="M96,-163.9C96,-117.7607 96,-103.7251 96,-62.2258"/>
<polygon fill="#000000" stroke="#000000" stroke-width="2" points="99.5001,-62 96,-52 92.5001,-62 99.5001,-62"/>
<text text-anchor="middle" x="109.9909" y="-93.2" font-family="Times,serif" font-size="14.00" fill="#000000">[0%]</text>
</g>
</g>
</svg>