<?xml version="1.0" encoding="UTF-8" standalone="no"?><!DOCTYPE svg PUBLIC "-//W3C//DTD SVG 1.1//EN" "http://www.w3.org/Graphics/SVG/1.1/DTD/svg11.dtd"><!-- Generated by graphviz version 2.40.1 (20161225.0304)
 --><!-- Title: A&#45;5.c.011t.cfg Pages: 1 --><svg xmlns="http://www.w3.org/2000/svg" xmlns:xlink="http://www.w3.org/1999/xlink" width="282pt" height="1260pt" viewBox="0.00 0.00 282.00 1260.40">
<g id="graph0" class="graph" transform="scale(1 1) rotate(0) translate(4 1256.4)">
<title>A-5.c.011t.cfg</title>
<polygon fill="#ffffff" stroke="transparent" points="-4,4 -4,-1256.4 278,-1256.4 278,4 -4,4"/>
<g id="clust1" class="cluster">
<title>cluster_main</title>
<polygon fill="none" stroke="#000000" stroke-dasharray="5,2" points="8,-8 8,-1244.4 266,-1244.4 266,-8 8,-8"/>
<text text-anchor="middle" x="137" y="-1227.8" font-family="Times,serif" font-size="14.00" fill="#000000">main ()</text>
</g>
<!-- fn_0_basic_block_0 -->
<g id="node1" class="node">
<title>fn_0_basic_block_0</title>
<polygon fill="#ffffff" stroke="#000000" points="110,-1211.6 48.76,-1193.6 110,-1175.6 171.24,-1193.6 110,-1211.6"/>
<polyline fill="none" stroke="#000000" points="60.273,-1196.984 60.273,-1190.216 "/>
<polyline fill="none" stroke="#000000" points="98.487,-1178.984 121.513,-1178.984 "/>
<polyline fill="none" stroke="#000000" points="159.727,-1190.216 159.727,-1196.984 "/>
<polyline fill="none" stroke="#000000" points="121.513,-1208.216 98.487,-1208.216 "/>
<text text-anchor="middle" x="110" y="-1189.4" font-family="Times,serif" font-size="14.00" fill="#000000">ENTRY</text>
</g>
<!-- fn_0_basic_block_1 -->
<g id="node2" class="node">
<title>fn_0_basic_block_1</title>
<polygon fill="#ffffff" stroke="#000000" points="107,-52 60.1002,-34 107,-16 153.8998,-34 107,-52"/>
<polyline fill="none" stroke="#000000" points="71.3034,-38.2998 71.3034,-29.7002 "/>
<polyline fill="none" stroke="#000000" points="95.7968,-20.2998 118.2032,-20.2998 "/>
<polyline fill="none" stroke="#000000" points="142.6966,-29.7002 142.6966,-38.2998 "/>
<polyline fill="none" stroke="#000000" points="118.2032,-47.7002 95.7968,-47.7002 "/>
<text text-anchor="middle" x="107" y="-29.8" font-family="Times,serif" font-size="14.00" fill="#000000">EXIT</text>
</g>
<!-- fn_0_basic_block_0&#45;&gt;fn_0_basic_block_1 -->
<!-- fn_0_basic_block_2 -->
<g id="node3" class="node">
<title>fn_0_basic_block_2</title>
<polygon fill="#d3d3d3" stroke="#000000" points="35.9739,-884.3 35.9739,-1084.3 184.0261,-1084.3 184.0261,-884.3 35.9739,-884.3"/>
<text text-anchor="middle" x="110" y="-1067.7" font-family="Times,serif" font-size="14.00" fill="#000000">FREQ:0</text>
<polyline fill="none" stroke="#000000" points="35.9739,-1059.5 184.0261,-1059.5 "/>
<text text-anchor="start" x="43.9739" y="-1042.9" font-family="Times,serif" font-size="14.00" fill="#000000">&lt;bb 2&gt;:</text>
<text text-anchor="middle" x="110" y="-1026.1" font-family="Times,serif" font-size="14.00" fill="#000000"></text>
<polyline fill="none" stroke="#000000" points="35.9739,-1017.9 184.0261,-1017.9 "/>
<text text-anchor="start" x="43.9739" y="-1001.3" font-family="Times,serif" font-size="14.00" fill="#000000">d = 10;</text>
<text text-anchor="middle" x="110" y="-984.5" font-family="Times,serif" font-size="14.00" fill="#000000"></text>
<polyline fill="none" stroke="#000000" points="35.9739,-976.3 184.0261,-976.3 "/>
<text text-anchor="start" x="43.9739" y="-959.7" font-family="Times,serif" font-size="14.00" fill="#000000">if (c &gt; d)</text>
<text text-anchor="start" x="43.9739" y="-942.9" font-family="Times,serif" font-size="14.00" fill="#000000">  goto &lt;bb 3&gt;; [0.00%]</text>
<text text-anchor="start" x="43.9739" y="-926.1" font-family="Times,serif" font-size="14.00" fill="#000000">else</text>
<text text-anchor="start" x="43.9739" y="-909.3" font-family="Times,serif" font-size="14.00" fill="#000000">  goto &lt;bb 4&gt;; [0.00%]</text>
<text text-anchor="middle" x="110" y="-892.5" font-family="Times,serif" font-size="14.00" fill="#000000"></text>
</g>
<!-- fn_0_basic_block_0&#45;&gt;fn_0_basic_block_2 -->
<g id="edge1" class="edge">
<title>fn_0_basic_block_0:s-&gt;fn_0_basic_block_2:n</title>
<path fill="none" stroke="#0000ff" stroke-width="2" d="M110,-1175.6C110,-1138.6679 110,-1126.9463 110,-1094.5442"/>
<polygon fill="#0000ff" stroke="#0000ff" stroke-width="2" points="113.5001,-1094.3 110,-1084.3 106.5001,-1094.3 113.5001,-1094.3"/>
<text text-anchor="middle" x="123.9909" y="-1126" font-family="Times,serif" font-size="14.00" fill="#000000">[0%]</text>
</g>
<!-- fn_0_basic_block_3 -->
<g id="node4" class="node">
<title>fn_0_basic_block_3</title>
<polygon fill="#d3d3d3" stroke="#000000" points="36.4739,-626.1 36.4739,-792.5 177.5261,-792.5 177.5261,-626.1 36.4739,-626.1"/>
<text text-anchor="middle" x="107" y="-775.9" font-family="Times,serif" font-size="14.00" fill="#000000">FREQ:0</text>
<polyline fill="none" stroke="#000000" points="36.4739,-767.7 177.5261,-767.7 "/>
<text text-anchor="start" x="44.4739" y="-751.1" font-family="Times,serif" font-size="14.00" fill="#000000">&lt;bb 3&gt;:</text>
<text text-anchor="middle" x="107" y="-734.3" font-family="Times,serif" font-size="14.00" fill="#000000"></text>
<polyline fill="none" stroke="#000000" points="36.4739,-726.1 177.5261,-726.1 "/>
<text text-anchor="start" x="44.4739" y="-709.5" font-family="Times,serif" font-size="14.00" fill="#000000">a = 3;</text>
<text text-anchor="middle" x="107" y="-692.7" font-family="Times,serif" font-size="14.00" fill="#000000"></text>
<polyline fill="none" stroke="#000000" points="36.4739,-684.5 177.5261,-684.5 "/>
<text text-anchor="start" x="44.4739" y="-667.9" font-family="Times,serif" font-size="14.00" fill="#000000">b = 2;</text>
<text text-anchor="start" x="44.4739" y="-651.1" font-family="Times,serif" font-size="14.00" fill="#000000">goto &lt;bb 5&gt;; [0.00%]</text>
<text text-anchor="middle" x="107" y="-634.3" font-family="Times,serif" font-size="14.00" fill="#000000"></text>
</g>
<!-- fn_0_basic_block_2&#45;&gt;fn_0_basic_block_3 -->
<g id="edge2" class="edge">
<title>fn_0_basic_block_2:s-&gt;fn_0_basic_block_3:n</title>
<path fill="none" stroke="#000000" stroke-width="2" d="M110,-884.3C110,-847.0649 107.5148,-835.2877 107.0683,-802.6271"/>
<polygon fill="#000000" stroke="#000000" stroke-width="2" points="110.5662,-802.2766 107,-792.3 103.5663,-802.323 110.5662,-802.2766"/>
<text text-anchor="middle" x="121.9909" y="-834.2" font-family="Times,serif" font-size="14.00" fill="#000000">[0%]</text>
</g>
<!-- fn_0_basic_block_4 -->
<g id="node5" class="node">
<title>fn_0_basic_block_4</title>
<polygon fill="#d3d3d3" stroke="#000000" points="195.6655,-634.5 195.6655,-784.1 258.3345,-784.1 258.3345,-634.5 195.6655,-634.5"/>
<text text-anchor="middle" x="227" y="-767.5" font-family="Times,serif" font-size="14.00" fill="#000000">FREQ:0</text>
<polyline fill="none" stroke="#000000" points="195.6655,-759.3 258.3345,-759.3 "/>
<text text-anchor="start" x="203.6655" y="-742.7" font-family="Times,serif" font-size="14.00" fill="#000000">&lt;bb 4&gt;:</text>
<text text-anchor="middle" x="227" y="-725.9" font-family="Times,serif" font-size="14.00" fill="#000000"></text>
<polyline fill="none" stroke="#000000" points="195.6655,-717.7 258.3345,-717.7 "/>
<text text-anchor="start" x="203.6655" y="-701.1" font-family="Times,serif" font-size="14.00" fill="#000000">a = 2;</text>
<text text-anchor="middle" x="227" y="-684.3" font-family="Times,serif" font-size="14.00" fill="#000000"></text>
<polyline fill="none" stroke="#000000" points="195.6655,-676.1 258.3345,-676.1 "/>
<text text-anchor="start" x="203.6655" y="-659.5" font-family="Times,serif" font-size="14.00" fill="#000000">b = 3;</text>
<text text-anchor="middle" x="227" y="-642.7" font-family="Times,serif" font-size="14.00" fill="#000000"></text>
</g>
<!-- fn_0_basic_block_2&#45;&gt;fn_0_basic_block_4 -->
<g id="edge3" class="edge">
<title>fn_0_basic_block_2:s-&gt;fn_0_basic_block_4:n</title>
<path fill="none" stroke="#000000" stroke-width="2" d="M110,-884.3C110,-853.4374 205.2642,-824.6984 223.8705,-794.2506"/>
<polygon fill="#000000" stroke="#000000" stroke-width="2" points="227.3386,-794.8894 227,-784.3 220.661,-792.7893 227.3386,-794.8894"/>
<text text-anchor="middle" x="187.9909" y="-834.2" font-family="Times,serif" font-size="14.00" fill="#000000">[0%]</text>
</g>
<!-- fn_0_basic_block_5 -->
<g id="node6" class="node">
<title>fn_0_basic_block_5</title>
<polygon fill="#d3d3d3" stroke="#000000" points="65.3041,-384.7 65.3041,-534.3 148.6959,-534.3 148.6959,-384.7 65.3041,-384.7"/>
<text text-anchor="middle" x="107" y="-517.7" font-family="Times,serif" font-size="14.00" fill="#000000">FREQ:0</text>
<polyline fill="none" stroke="#000000" points="65.3041,-509.5 148.6959,-509.5 "/>
<text text-anchor="start" x="73.3041" y="-492.9" font-family="Times,serif" font-size="14.00" fill="#000000">&lt;bb 5&gt;:</text>
<text text-anchor="middle" x="107" y="-476.1" font-family="Times,serif" font-size="14.00" fill="#000000"></text>
<polyline fill="none" stroke="#000000" points="65.3041,-467.9 148.6959,-467.9 "/>
<text text-anchor="start" x="73.3041" y="-451.3" font-family="Times,serif" font-size="14.00" fill="#000000">c = a + b;</text>
<text text-anchor="middle" x="107" y="-434.5" font-family="Times,serif" font-size="14.00" fill="#000000"></text>
<polyline fill="none" stroke="#000000" points="65.3041,-426.3 148.6959,-426.3 "/>
<text text-anchor="start" x="73.3041" y="-409.7" font-family="Times,serif" font-size="14.00" fill="#000000">D.1804 = 0;</text>
<text text-anchor="middle" x="107" y="-392.9" font-family="Times,serif" font-size="14.00" fill="#000000"></text>
</g>
<!-- fn_0_basic_block_3&#45;&gt;fn_0_basic_block_5 -->
<g id="edge4" class="edge">
<title>fn_0_basic_block_3:s-&gt;fn_0_basic_block_5:n</title>
<path fill="none" stroke="#0000ff" stroke-width="2" d="M107,-626.3C107,-589.1656 107,-577.3798 107,-544.8003"/>
<polygon fill="#0000ff" stroke="#0000ff" stroke-width="2" points="110.5001,-544.5 107,-534.5 103.5001,-544.5 110.5001,-544.5"/>
<text text-anchor="middle" x="120.9909" y="-576" font-family="Times,serif" font-size="14.00" fill="#000000">[0%]</text>
</g>
<!-- fn_0_basic_block_4&#45;&gt;fn_0_basic_block_5 -->
<g id="edge5" class="edge">
<title>fn_0_basic_block_4:s-&gt;fn_0_basic_block_5:n</title>
<path fill="none" stroke="#0000ff" stroke-width="2" d="M227,-634.3C227,-602.8678 128.4453,-574.9272 109.9663,-544.1497"/>
<polygon fill="#0000ff" stroke="#0000ff" stroke-width="2" points="113.2839,-543.0302 107,-534.5 106.5929,-545.087 113.2839,-543.0302"/>
<text text-anchor="middle" x="185.9909" y="-576" font-family="Times,serif" font-size="14.00" fill="#000000">[0%]</text>
</g>
<!-- fn_0_basic_block_6 -->
<g id="node7" class="node">
<title>fn_0_basic_block_6</title>
<polygon fill="#d3d3d3" stroke="#000000" points="56.8929,-143.3 56.8929,-292.9 157.1071,-292.9 157.1071,-143.3 56.8929,-143.3"/>
<text text-anchor="middle" x="107" y="-276.3" font-family="Times,serif" font-size="14.00" fill="#000000">FREQ:0</text>
<polyline fill="none" stroke="#000000" points="56.8929,-268.1 157.1071,-268.1 "/>
<text text-anchor="start" x="64.8929" y="-251.5" font-family="Times,serif" font-size="14.00" fill="#000000">&lt;bb 6&gt;:</text>
<text text-anchor="middle" x="107" y="-234.7" font-family="Times,serif" font-size="14.00" fill="#000000"></text>
<polyline fill="none" stroke="#000000" points="56.8929,-226.5 157.1071,-226.5 "/>
<text text-anchor="start" x="64.8929" y="-209.9" font-family="Times,serif" font-size="14.00" fill="#000000">&lt;L3&gt; [0.00%]:</text>
<text text-anchor="middle" x="107" y="-193.1" font-family="Times,serif" font-size="14.00" fill="#000000"></text>
<polyline fill="none" stroke="#000000" points="56.8929,-184.9 157.1071,-184.9 "/>
<text text-anchor="start" x="64.8929" y="-168.3" font-family="Times,serif" font-size="14.00" fill="#000000">return D.1804;</text>
<text text-anchor="middle" x="107" y="-151.5" font-family="Times,serif" font-size="14.00" fill="#000000"></text>
</g>
<!-- fn_0_basic_block_5&#45;&gt;fn_0_basic_block_6 -->
<g id="edge6" class="edge">
<title>fn_0_basic_block_5:s-&gt;fn_0_basic_block_6:n</title>
<path fill="none" stroke="#0000ff" stroke-width="2" d="M107,-384.5C107,-347.5274 107,-335.793 107,-303.3554"/>
<polygon fill="#0000ff" stroke="#0000ff" stroke-width="2" points="110.5001,-303.1 107,-293.1 103.5001,-303.1 110.5001,-303.1"/>
<text text-anchor="middle" x="120.9909" y="-334.6" font-family="Times,serif" font-size="14.00" fill="#000000">[0%]</text>
</g>
<!-- fn_0_basic_block_6&#45;&gt;fn_0_basic_block_1 -->
<g id="edge7" class="edge">
<title>fn_0_basic_block_6:s-&gt;fn_0_basic_block_1:n</title>
<path fill="none" stroke="#000000" stroke-width="2" d="M107,-143.1C107,-106.2488 107,-94.5528 107,-62.2217"/>
<polygon fill="#000000" stroke="#000000" stroke-width="2" points="110.5001,-62 107,-52 103.5001,-62 110.5001,-62"/>
<text text-anchor="middle" x="120.9909" y="-93.2" font-family="Times,serif" font-size="14.00" fill="#000000">[0%]</text>
</g>
</g>
</svg>