<?xml version="1.0" encoding="UTF-8" standalone="no"?><!DOCTYPE svg PUBLIC "-//W3C//DTD SVG 1.1//EN" "http://www.w3.org/Graphics/SVG/1.1/DTD/svg11.dtd"><!-- Generated by graphviz version 2.40.1 (20161225.0304)
 --><!-- Title: B&#45;1.c.011t.cfg Pages: 1 --><svg xmlns="http://www.w3.org/2000/svg" xmlns:xlink="http://www.w3.org/1999/xlink" width="318pt" height="752pt" viewBox="0.00 0.00 318.00 752.00">
<g id="graph0" class="graph" transform="scale(1 1) rotate(0) translate(4 748)">
<title>B-1.c.011t.cfg</title>
<polygon fill="#ffffff" stroke="transparent" points="-4,4 -4,-748 314,-748 314,4 -4,4"/>
<g id="clust1" class="cluster">
<title>cluster_AddTwo</title>
<polygon fill="none" stroke="#000000" stroke-dasharray="5,2" points="8,-8 8,-736 146,-736 146,-8 8,-8"/>
<text text-anchor="middle" x="77" y="-719.4" font-family="Times,serif" font-size="14.00" fill="#000000">AddTwo ()</text>
</g>
<g id="clust2" class="cluster">
<title>cluster_main</title>
<polygon fill="none" stroke="#000000" stroke-dasharray="5,2" points="154,-8 154,-736 302,-736 302,-8 154,-8"/>
<text text-anchor="middle" x="228" y="-719.4" font-family="Times,serif" font-size="14.00" fill="#000000">main ()</text>
</g>
<!-- fn_0_basic_block_0 -->
<g id="node1" class="node">
<title>fn_0_basic_block_0</title>
<polygon fill="#ffffff" stroke="#000000" points="77,-703.2 15.76,-685.2 77,-667.2 138.24,-685.2 77,-703.2"/>
<polyline fill="none" stroke="#000000" points="27.273,-688.584 27.273,-681.816 "/>
<polyline fill="none" stroke="#000000" points="65.487,-670.584 88.513,-670.584 "/>
<polyline fill="none" stroke="#000000" points="126.727,-681.816 126.727,-688.584 "/>
<polyline fill="none" stroke="#000000" points="88.513,-699.816 65.487,-699.816 "/>
<text text-anchor="middle" x="77" y="-681" font-family="Times,serif" font-size="14.00" fill="#000000">ENTRY</text>
</g>
<!-- fn_0_basic_block_1 -->
<g id="node2" class="node">
<title>fn_0_basic_block_1</title>
<polygon fill="#ffffff" stroke="#000000" points="86,-52 39.1002,-34 86,-16 132.8998,-34 86,-52"/>
<polyline fill="none" stroke="#000000" points="50.3034,-38.2998 50.3034,-29.7002 "/>
<polyline fill="none" stroke="#000000" points="74.7968,-20.2998 97.2032,-20.2998 "/>
<polyline fill="none" stroke="#000000" points="121.6966,-29.7002 121.6966,-38.2998 "/>
<polyline fill="none" stroke="#000000" points="97.2032,-47.7002 74.7968,-47.7002 "/>
<text text-anchor="middle" x="86" y="-29.8" font-family="Times,serif" font-size="14.00" fill="#000000">EXIT</text>
</g>
<!-- fn_0_basic_block_0&#45;&gt;fn_0_basic_block_1 -->
<!-- fn_0_basic_block_2 -->
<g id="node3" class="node">
<title>fn_0_basic_block_2</title>
<polygon fill="#d3d3d3" stroke="#000000" points="39.6968,-405.5 39.6968,-555.1 122.3032,-555.1 122.3032,-405.5 39.6968,-405.5"/>
<text text-anchor="middle" x="81" y="-538.5" font-family="Times,serif" font-size="14.00" fill="#000000">FREQ:0</text>
<polyline fill="none" stroke="#000000" points="39.6968,-530.3 122.3032,-530.3 "/>
<text text-anchor="start" x="47.6968" y="-513.7" font-family="Times,serif" font-size="14.00" fill="#000000">&lt;bb 2&gt;:</text>
<text text-anchor="middle" x="81" y="-496.9" font-family="Times,serif" font-size="14.00" fill="#000000"></text>
<polyline fill="none" stroke="#000000" points="39.6968,-488.7 122.3032,-488.7 "/>
<text text-anchor="start" x="47.6968" y="-472.1" font-family="Times,serif" font-size="14.00" fill="#000000">a = a + 2;</text>
<text text-anchor="middle" x="81" y="-455.3" font-family="Times,serif" font-size="14.00" fill="#000000"></text>
<polyline fill="none" stroke="#000000" points="39.6968,-447.1 122.3032,-447.1 "/>
<text text-anchor="start" x="47.6968" y="-430.5" font-family="Times,serif" font-size="14.00" fill="#000000">D.1801 = a;</text>
<text text-anchor="middle" x="81" y="-413.7" font-family="Times,serif" font-size="14.00" fill="#000000"></text>
</g>
<!-- fn_0_basic_block_0&#45;&gt;fn_0_basic_block_2 -->
<g id="edge1" class="edge">
<title>fn_0_basic_block_0:s-&gt;fn_0_basic_block_2:n</title>
<path fill="none" stroke="#0000ff" stroke-width="2" d="M77,-667.2C77,-621.0312 80.4428,-607.0482 80.9404,-565.5313"/>
<polygon fill="#0000ff" stroke="#0000ff" stroke-width="2" points="84.4415,-565.3203 81,-555.3 77.4417,-565.2794 84.4415,-565.3203"/>
<text text-anchor="middle" x="91.9909" y="-617.6" font-family="Times,serif" font-size="14.00" fill="#000000">[0%]</text>
</g>
<!-- fn_0_basic_block_3 -->
<g id="node4" class="node">
<title>fn_0_basic_block_3</title>
<polygon fill="#d3d3d3" stroke="#000000" points="35.8929,-143.3 35.8929,-292.9 136.1071,-292.9 136.1071,-143.3 35.8929,-143.3"/>
<text text-anchor="middle" x="86" y="-276.3" font-family="Times,serif" font-size="14.00" fill="#000000">FREQ:0</text>
<polyline fill="none" stroke="#000000" points="35.8929,-268.1 136.1071,-268.1 "/>
<text text-anchor="start" x="43.8929" y="-251.5" font-family="Times,serif" font-size="14.00" fill="#000000">&lt;bb 3&gt;:</text>
<text text-anchor="middle" x="86" y="-234.7" font-family="Times,serif" font-size="14.00" fill="#000000"></text>
<polyline fill="none" stroke="#000000" points="35.8929,-226.5 136.1071,-226.5 "/>
<text text-anchor="start" x="43.8929" y="-209.9" font-family="Times,serif" font-size="14.00" fill="#000000">&lt;L0&gt; [0.00%]:</text>
<text text-anchor="middle" x="86" y="-193.1" font-family="Times,serif" font-size="14.00" fill="#000000"></text>
<polyline fill="none" stroke="#000000" points="35.8929,-184.9 136.1071,-184.9 "/>
<text text-anchor="start" x="43.8929" y="-168.3" font-family="Times,serif" font-size="14.00" fill="#000000">return D.1801;</text>
<text text-anchor="middle" x="86" y="-151.5" font-family="Times,serif" font-size="14.00" fill="#000000"></text>
</g>
<!-- fn_0_basic_block_2&#45;&gt;fn_0_basic_block_3 -->
<g id="edge2" class="edge">
<title>fn_0_basic_block_2:s-&gt;fn_0_basic_block_3:n</title>
<path fill="none" stroke="#0000ff" stroke-width="2" d="M81,-405.3C81,-358.9911 85.3035,-344.9998 85.9254,-303.3617"/>
<polygon fill="#0000ff" stroke="#0000ff" stroke-width="2" points="89.4272,-303.1252 86,-293.1 82.4273,-303.0743 89.4272,-303.1252"/>
<text text-anchor="middle" x="97.9909" y="-334.6" font-family="Times,serif" font-size="14.00" fill="#000000">[0%]</text>
</g>
<!-- fn_0_basic_block_3&#45;&gt;fn_0_basic_block_1 -->
<g id="edge3" class="edge">
<title>fn_0_basic_block_3:s-&gt;fn_0_basic_block_1:n</title>
<path fill="none" stroke="#000000" stroke-width="2" d="M86,-143.1C86,-106.2488 86,-94.5528 86,-62.2217"/>
<polygon fill="#000000" stroke="#000000" stroke-width="2" points="89.5001,-62 86,-52 82.5001,-62 89.5001,-62"/>
<text text-anchor="middle" x="99.9909" y="-93.2" font-family="Times,serif" font-size="14.00" fill="#000000">[0%]</text>
</g>
<!-- fn_1_basic_block_0 -->
<g id="node5" class="node">
<title>fn_1_basic_block_0</title>
<polygon fill="#ffffff" stroke="#000000" points="233,-703.2 171.76,-685.2 233,-667.2 294.24,-685.2 233,-703.2"/>
<polyline fill="none" stroke="#000000" points="183.273,-688.584 183.273,-681.816 "/>
<polyline fill="none" stroke="#000000" points="221.487,-670.584 244.513,-670.584 "/>
<polyline fill="none" stroke="#000000" points="282.727,-681.816 282.727,-688.584 "/>
<polyline fill="none" stroke="#000000" points="244.513,-699.816 221.487,-699.816 "/>
<text text-anchor="middle" x="233" y="-681" font-family="Times,serif" font-size="14.00" fill="#000000">ENTRY</text>
</g>
<!-- fn_1_basic_block_1 -->
<g id="node6" class="node">
<title>fn_1_basic_block_1</title>
<polygon fill="#ffffff" stroke="#000000" points="238,-52 191.1002,-34 238,-16 284.8998,-34 238,-52"/>
<polyline fill="none" stroke="#000000" points="202.3034,-38.2998 202.3034,-29.7002 "/>
<polyline fill="none" stroke="#000000" points="226.7968,-20.2998 249.2032,-20.2998 "/>
<polyline fill="none" stroke="#000000" points="273.6966,-29.7002 273.6966,-38.2998 "/>
<polyline fill="none" stroke="#000000" points="249.2032,-47.7002 226.7968,-47.7002 "/>
<text text-anchor="middle" x="238" y="-29.8" font-family="Times,serif" font-size="14.00" fill="#000000">EXIT</text>
</g>
<!-- fn_1_basic_block_0&#45;&gt;fn_1_basic_block_1 -->
<!-- fn_1_basic_block_2 -->
<g id="node7" class="node">
<title>fn_1_basic_block_2</title>
<polygon fill="#d3d3d3" stroke="#000000" points="182.3139,-384.7 182.3139,-575.9 293.6861,-575.9 293.6861,-384.7 182.3139,-384.7"/>
<text text-anchor="middle" x="238" y="-559.3" font-family="Times,serif" font-size="14.00" fill="#000000">FREQ:0</text>
<polyline fill="none" stroke="#000000" points="182.3139,-551.1 293.6861,-551.1 "/>
<text text-anchor="start" x="190.3139" y="-534.5" font-family="Times,serif" font-size="14.00" fill="#000000">&lt;bb 2&gt;:</text>
<text text-anchor="middle" x="238" y="-517.7" font-family="Times,serif" font-size="14.00" fill="#000000"></text>
<polyline fill="none" stroke="#000000" points="182.3139,-509.5 293.6861,-509.5 "/>
<text text-anchor="start" x="190.3139" y="-492.9" font-family="Times,serif" font-size="14.00" fill="#000000">x = 3;</text>
<text text-anchor="middle" x="238" y="-476.1" font-family="Times,serif" font-size="14.00" fill="#000000"></text>
<polyline fill="none" stroke="#000000" points="182.3139,-467.9 293.6861,-467.9 "/>
<text text-anchor="start" x="190.3139" y="-451.3" font-family="Times,serif" font-size="14.00" fill="#000000">x = AddTwo (x);</text>
<text text-anchor="middle" x="238" y="-434.5" font-family="Times,serif" font-size="14.00" fill="#000000"></text>
<polyline fill="none" stroke="#000000" points="182.3139,-426.3 293.6861,-426.3 "/>
<text text-anchor="start" x="190.3139" y="-409.7" font-family="Times,serif" font-size="14.00" fill="#000000">D.1803 = x;</text>
<text text-anchor="middle" x="238" y="-392.9" font-family="Times,serif" font-size="14.00" fill="#000000"></text>
</g>
<!-- fn_1_basic_block_0&#45;&gt;fn_1_basic_block_2 -->
<g id="edge5" class="edge">
<title>fn_1_basic_block_0:s-&gt;fn_1_basic_block_2:n</title>
<path fill="none" stroke="#0000ff" stroke-width="2" d="M233,-667.2C233,-630.3741 237.1419,-618.8 237.8862,-586.5116"/>
<polygon fill="#0000ff" stroke="#0000ff" stroke-width="2" points="241.3882,-586.3384 238,-576.3 234.3887,-586.2603 241.3882,-586.3384"/>
<text text-anchor="middle" x="249.9909" y="-617.6" font-family="Times,serif" font-size="14.00" fill="#000000">[0%]</text>
</g>
<!-- fn_1_basic_block_3 -->
<g id="node8" class="node">
<title>fn_1_basic_block_3</title>
<polygon fill="#d3d3d3" stroke="#000000" points="187.8929,-143.3 187.8929,-292.9 288.1071,-292.9 288.1071,-143.3 187.8929,-143.3"/>
<text text-anchor="middle" x="238" y="-276.3" font-family="Times,serif" font-size="14.00" fill="#000000">FREQ:0</text>
<polyline fill="none" stroke="#000000" points="187.8929,-268.1 288.1071,-268.1 "/>
<text text-anchor="start" x="195.8929" y="-251.5" font-family="Times,serif" font-size="14.00" fill="#000000">&lt;bb 3&gt;:</text>
<text text-anchor="middle" x="238" y="-234.7" font-family="Times,serif" font-size="14.00" fill="#000000"></text>
<polyline fill="none" stroke="#000000" points="187.8929,-226.5 288.1071,-226.5 "/>
<text text-anchor="start" x="195.8929" y="-209.9" font-family="Times,serif" font-size="14.00" fill="#000000">&lt;L0&gt; [0.00%]:</text>
<text text-anchor="middle" x="238" y="-193.1" font-family="Times,serif" font-size="14.00" fill="#000000"></text>
<polyline fill="none" stroke="#000000" points="187.8929,-184.9 288.1071,-184.9 "/>
<text text-anchor="start" x="195.8929" y="-168.3" font-family="Times,serif" font-size="14.00" fill="#000000">return D.1803;</text>
<text text-anchor="middle" x="238" y="-151.5" font-family="Times,serif" font-size="14.00" fill="#000000"></text>
</g>
<!-- fn_1_basic_block_2&#45;&gt;fn_1_basic_block_3 -->
<g id="edge6" class="edge">
<title>fn_1_basic_block_2:s-&gt;fn_1_basic_block_3:n</title>
<path fill="none" stroke="#0000ff" stroke-width="2" d="M238,-384.3C238,-347.4083 238,-335.6996 238,-303.3329"/>
<polygon fill="#0000ff" stroke="#0000ff" stroke-width="2" points="241.5001,-303.1 238,-293.1 234.5001,-303.1 241.5001,-303.1"/>
<text text-anchor="middle" x="251.9909" y="-334.6" font-family="Times,serif" font-size="14.00" fill="#000000">[0%]</text>
</g>
<!-- fn_1_basic_block_3&#45;&gt;fn_1_basic_block_1 -->
<g id="edge7" class="edge">
<title>fn_1_basic_block_3:s-&gt;fn_1_basic_block_1:n</title>
<path fill="none" stroke="#000000" stroke-width="2" d="M238,-143.1C238,-106.2488 238,-94.5528 238,-62.2217"/>
<polygon fill="#000000" stroke="#000000" stroke-width="2" points="241.5001,-62 238,-52 234.5001,-62 241.5001,-62"/>
<text text-anchor="middle" x="251.9909" y="-93.2" font-family="Times,serif" font-size="14.00" fill="#000000">[0%]</text>
</g>
</g>
</svg>