<?xml version="1.0" encoding="UTF-8" standalone="no"?><!DOCTYPE svg PUBLIC "-//W3C//DTD SVG 1.1//EN" "http://www.w3.org/Graphics/SVG/1.1/DTD/svg11.dtd"><!-- Generated by graphviz version 2.40.1 (20161225.0304)
 --><!-- Title: B&#45;2.c.011t.cfg Pages: 1 --><svg xmlns="http://www.w3.org/2000/svg" xmlns:xlink="http://www.w3.org/1999/xlink" width="357pt" height="1242pt" viewBox="0.00 0.00 356.98 1241.60">
<g id="graph0" class="graph" transform="scale(1 1) rotate(0) translate(4 1237.6)">
<title>B-2.c.011t.cfg</title>
<polygon fill="#ffffff" stroke="transparent" points="-4,4 -4,-1237.6 352.9818,-1237.6 352.9818,4 -4,4"/>
<g id="clust1" class="cluster">
<title>cluster_main</title>
<polygon fill="none" stroke="#000000" stroke-dasharray="5,2" points="8,-8 8,-1225.6 316,-1225.6 316,-8 8,-8"/>
<text text-anchor="middle" x="162" y="-1209" font-family="Times,serif" font-size="14.00" fill="#000000">main ()</text>
</g>
<g id="clust2" class="cluster">
<title>cluster_0_1</title>
<polygon fill="#e0e0e0" stroke="#006400" stroke-width="2" points="144,-134.8 144,-817.8 308,-817.8 308,-134.8 144,-134.8"/>
<text text-anchor="middle" x="169.6953" y="-801.2" font-family="Times,serif" font-size="14.00" fill="#000000">loop 1</text>
</g>
<!-- fn_0_basic_block_4 -->
<g id="node1" class="node">
<title>fn_0_basic_block_4</title>
<polygon fill="#d3d3d3" stroke="#000000" points="151.9739,-626.1 151.9739,-784.5 300.0261,-784.5 300.0261,-626.1 151.9739,-626.1"/>
<text text-anchor="middle" x="226" y="-767.9" font-family="Times,serif" font-size="14.00" fill="#000000">FREQ:0</text>
<polyline fill="none" stroke="#000000" points="151.9739,-759.7 300.0261,-759.7 "/>
<text text-anchor="start" x="159.9739" y="-743.1" font-family="Times,serif" font-size="14.00" fill="#000000">&lt;bb 4&gt;:</text>
<text text-anchor="middle" x="226" y="-726.3" font-family="Times,serif" font-size="14.00" fill="#000000"></text>
<polyline fill="none" stroke="#000000" points="151.9739,-718.1 300.0261,-718.1 "/>
<text text-anchor="start" x="159.9739" y="-701.5" font-family="Times,serif" font-size="14.00" fill="#000000">if (i &lt;= 3)</text>
<text text-anchor="start" x="159.9739" y="-684.7" font-family="Times,serif" font-size="14.00" fill="#000000">  goto &lt;bb 3&gt;; [0.00%]</text>
<text text-anchor="start" x="159.9739" y="-667.9" font-family="Times,serif" font-size="14.00" fill="#000000">else</text>
<text text-anchor="start" x="159.9739" y="-651.1" font-family="Times,serif" font-size="14.00" fill="#000000">  goto &lt;bb 5&gt;; [0.00%]</text>
<text text-anchor="middle" x="226" y="-634.3" font-family="Times,serif" font-size="14.00" fill="#000000"></text>
</g>
<!-- fn_0_basic_block_3 -->
<g id="node2" class="node">
<title>fn_0_basic_block_3</title>
<polygon fill="#d3d3d3" stroke="#000000" points="159.6422,-143.3 159.6422,-334.5 256.3578,-334.5 256.3578,-143.3 159.6422,-143.3"/>
<text text-anchor="middle" x="208" y="-317.9" font-family="Times,serif" font-size="14.00" fill="#000000">FREQ:0</text>
<polyline fill="none" stroke="#000000" points="159.6422,-309.7 256.3578,-309.7 "/>
<text text-anchor="start" x="167.6422" y="-293.1" font-family="Times,serif" font-size="14.00" fill="#000000">&lt;bb 3&gt;:</text>
<text text-anchor="middle" x="208" y="-276.3" font-family="Times,serif" font-size="14.00" fill="#000000"></text>
<polyline fill="none" stroke="#000000" points="159.6422,-268.1 256.3578,-268.1 "/>
<text text-anchor="start" x="167.6422" y="-251.5" font-family="Times,serif" font-size="14.00" fill="#000000">N.0_1 = N;</text>
<text text-anchor="middle" x="208" y="-234.7" font-family="Times,serif" font-size="14.00" fill="#000000"></text>
<polyline fill="none" stroke="#000000" points="159.6422,-226.5 256.3578,-226.5 "/>
<text text-anchor="start" x="167.6422" y="-209.9" font-family="Times,serif" font-size="14.00" fill="#000000">a = a + N.0_1;</text>
<text text-anchor="middle" x="208" y="-193.1" font-family="Times,serif" font-size="14.00" fill="#000000"></text>
<polyline fill="none" stroke="#000000" points="159.6422,-184.9 256.3578,-184.9 "/>
<text text-anchor="start" x="167.6422" y="-168.3" font-family="Times,serif" font-size="14.00" fill="#000000">i = i + 1;</text>
<text text-anchor="middle" x="208" y="-151.5" font-family="Times,serif" font-size="14.00" fill="#000000"></text>
</g>
<!-- fn_0_basic_block_4&#45;&gt;fn_0_basic_block_3 -->
<g id="edge4" class="edge">
<title>fn_0_basic_block_4:s-&gt;fn_0_basic_block_3:n</title>
<path fill="none" stroke="#000000" stroke-width="2" d="M226,-626.3C226,-604.3047 208,-602.1953 208,-580.2 208,-580.2 208,-580.2 208,-380.4 208,-364.1274 208,-357.6756 208,-345.2393"/>
<polygon fill="#000000" stroke="#000000" stroke-width="2" points="211.5001,-344.9 208,-334.9 204.5001,-344.9 211.5001,-344.9"/>
<text text-anchor="middle" x="221.9909" y="-476.1" font-family="Times,serif" font-size="14.00" fill="#000000">[0%]</text>
</g>
<!-- fn_0_basic_block_5 -->
<g id="node6" class="node">
<title>fn_0_basic_block_5</title>
<polygon fill="#d3d3d3" stroke="#000000" points="44.6968,-426.3 44.6968,-534.3 127.3032,-534.3 127.3032,-426.3 44.6968,-426.3"/>
<text text-anchor="middle" x="86" y="-517.7" font-family="Times,serif" font-size="14.00" fill="#000000">FREQ:0</text>
<polyline fill="none" stroke="#000000" points="44.6968,-509.5 127.3032,-509.5 "/>
<text text-anchor="start" x="52.6968" y="-492.9" font-family="Times,serif" font-size="14.00" fill="#000000">&lt;bb 5&gt;:</text>
<text text-anchor="middle" x="86" y="-476.1" font-family="Times,serif" font-size="14.00" fill="#000000"></text>
<polyline fill="none" stroke="#000000" points="44.6968,-467.9 127.3032,-467.9 "/>
<text text-anchor="start" x="52.6968" y="-451.3" font-family="Times,serif" font-size="14.00" fill="#000000">D.1803 = a;</text>
<text text-anchor="middle" x="86" y="-434.5" font-family="Times,serif" font-size="14.00" fill="#000000"></text>
</g>
<!-- fn_0_basic_block_4&#45;&gt;fn_0_basic_block_5 -->
<g id="edge5" class="edge">
<title>fn_0_basic_block_4:s-&gt;fn_0_basic_block_5:n</title>
<path fill="none" stroke="#000000" stroke-width="2" d="M226,-626.3C226,-618.2656 121.6644,-562.4756 93.1351,-541.3831"/>
<polygon fill="#000000" stroke="#000000" stroke-width="2" points="95.5627,-538.8613 86,-534.3 90.6311,-543.8291 95.5627,-538.8613"/>
<text text-anchor="middle" x="182.9909" y="-576" font-family="Times,serif" font-size="14.00" fill="#000000">[0%]</text>
</g>
<!-- fn_0_basic_block_3&#45;&gt;fn_0_basic_block_4 -->
<g id="edge3" class="edge">
<title>fn_0_basic_block_3:s-&gt;fn_0_basic_block_4:n</title>
<path fill="none" stroke="#0000ff" stroke-width="2" stroke-dasharray="1,5" d="M208,-142.9C208,-132.1538 248.4242,-135.6517 256.3578,-142.9 415.3891,-288.1937 290.3122,-410.4097 300.0261,-625.6 300.0261,-625.6 246.3454,-740.6827 230.409,-774.8479"/>
<polygon fill="#0000ff" stroke="#0000ff" stroke-width="2" points="227.0554,-773.7579 226,-784.3 233.3992,-776.717 227.0554,-773.7579"/>
<text text-anchor="middle" x="334.9909" y="-476.1" font-family="Times,serif" font-size="14.00" fill="#000000">[0%]</text>
</g>
<!-- fn_0_basic_block_0 -->
<g id="node3" class="node">
<title>fn_0_basic_block_0</title>
<polygon fill="#ffffff" stroke="#000000" points="226,-1192.8 164.76,-1174.8 226,-1156.8 287.24,-1174.8 226,-1192.8"/>
<polyline fill="none" stroke="#000000" points="176.273,-1178.184 176.273,-1171.416 "/>
<polyline fill="none" stroke="#000000" points="214.487,-1160.184 237.513,-1160.184 "/>
<polyline fill="none" stroke="#000000" points="275.727,-1171.416 275.727,-1178.184 "/>
<polyline fill="none" stroke="#000000" points="237.513,-1189.416 214.487,-1189.416 "/>
<text text-anchor="middle" x="226" y="-1170.6" font-family="Times,serif" font-size="14.00" fill="#000000">ENTRY</text>
</g>
<!-- fn_0_basic_block_1 -->
<g id="node4" class="node">
<title>fn_0_basic_block_1</title>
<polygon fill="#ffffff" stroke="#000000" points="86,-52 39.1002,-34 86,-16 132.8998,-34 86,-52"/>
<polyline fill="none" stroke="#000000" points="50.3034,-38.2998 50.3034,-29.7002 "/>
<polyline fill="none" stroke="#000000" points="74.7968,-20.2998 97.2032,-20.2998 "/>
<polyline fill="none" stroke="#000000" points="121.6966,-29.7002 121.6966,-38.2998 "/>
<polyline fill="none" stroke="#000000" points="97.2032,-47.7002 74.7968,-47.7002 "/>
<text text-anchor="middle" x="86" y="-29.8" font-family="Times,serif" font-size="14.00" fill="#000000">EXIT</text>
</g>
<!-- fn_0_basic_block_0&#45;&gt;fn_0_basic_block_1 -->
<!-- fn_0_basic_block_2 -->
<g id="node5" class="node">
<title>fn_0_basic_block_2</title>
<polygon fill="#d3d3d3" stroke="#000000" points="155.4739,-899.1 155.4739,-1065.5 296.5261,-1065.5 296.5261,-899.1 155.4739,-899.1"/>
<text text-anchor="middle" x="226" y="-1048.9" font-family="Times,serif" font-size="14.00" fill="#000000">FREQ:0</text>
<polyline fill="none" stroke="#000000" points="155.4739,-1040.7 296.5261,-1040.7 "/>
<text text-anchor="start" x="163.4739" y="-1024.1" font-family="Times,serif" font-size="14.00" fill="#000000">&lt;bb 2&gt;:</text>
<text text-anchor="middle" x="226" y="-1007.3" font-family="Times,serif" font-size="14.00" fill="#000000"></text>
<polyline fill="none" stroke="#000000" points="155.4739,-999.1 296.5261,-999.1 "/>
<text text-anchor="start" x="163.4739" y="-982.5" font-family="Times,serif" font-size="14.00" fill="#000000">a = 10;</text>
<text text-anchor="middle" x="226" y="-965.7" font-family="Times,serif" font-size="14.00" fill="#000000"></text>
<polyline fill="none" stroke="#000000" points="155.4739,-957.5 296.5261,-957.5 "/>
<text text-anchor="start" x="163.4739" y="-940.9" font-family="Times,serif" font-size="14.00" fill="#000000">i = 0;</text>
<text text-anchor="start" x="163.4739" y="-924.1" font-family="Times,serif" font-size="14.00" fill="#000000">goto &lt;bb 4&gt;; [0.00%]</text>
<text text-anchor="middle" x="226" y="-907.3" font-family="Times,serif" font-size="14.00" fill="#000000"></text>
</g>
<!-- fn_0_basic_block_0&#45;&gt;fn_0_basic_block_2 -->
<g id="edge1" class="edge">
<title>fn_0_basic_block_0:s-&gt;fn_0_basic_block_2:n</title>
<path fill="none" stroke="#0000ff" stroke-width="2" d="M226,-1156.8C226,-1119.787 226,-1108.0397 226,-1075.5666"/>
<polygon fill="#0000ff" stroke="#0000ff" stroke-width="2" points="229.5001,-1075.3 226,-1065.3 222.5001,-1075.3 229.5001,-1075.3"/>
<text text-anchor="middle" x="239.9909" y="-1107.2" font-family="Times,serif" font-size="14.00" fill="#000000">[0%]</text>
</g>
<!-- fn_0_basic_block_2&#45;&gt;fn_0_basic_block_4 -->
<g id="edge2" class="edge">
<title>fn_0_basic_block_2:s-&gt;fn_0_basic_block_4:n</title>
<path fill="none" stroke="#0000ff" stroke-width="2" d="M226,-899.3C226,-851.7826 226,-837.3975 226,-794.5394"/>
<polygon fill="#0000ff" stroke="#0000ff" stroke-width="2" points="229.5001,-794.3 226,-784.3 222.5001,-794.3 229.5001,-794.3"/>
<text text-anchor="middle" x="239.9909" y="-849" font-family="Times,serif" font-size="14.00" fill="#000000">[0%]</text>
</g>
<!-- fn_0_basic_block_6 -->
<g id="node7" class="node">
<title>fn_0_basic_block_6</title>
<polygon fill="#d3d3d3" stroke="#000000" points="35.8929,-164.1 35.8929,-313.7 136.1071,-313.7 136.1071,-164.1 35.8929,-164.1"/>
<text text-anchor="middle" x="86" y="-297.1" font-family="Times,serif" font-size="14.00" fill="#000000">FREQ:0</text>
<polyline fill="none" stroke="#000000" points="35.8929,-288.9 136.1071,-288.9 "/>
<text text-anchor="start" x="43.8929" y="-272.3" font-family="Times,serif" font-size="14.00" fill="#000000">&lt;bb 6&gt;:</text>
<text text-anchor="middle" x="86" y="-255.5" font-family="Times,serif" font-size="14.00" fill="#000000"></text>
<polyline fill="none" stroke="#000000" points="35.8929,-247.3 136.1071,-247.3 "/>
<text text-anchor="start" x="43.8929" y="-230.7" font-family="Times,serif" font-size="14.00" fill="#000000">&lt;L3&gt; [0.00%]:</text>
<text text-anchor="middle" x="86" y="-213.9" font-family="Times,serif" font-size="14.00" fill="#000000"></text>
<polyline fill="none" stroke="#000000" points="35.8929,-205.7 136.1071,-205.7 "/>
<text text-anchor="start" x="43.8929" y="-189.1" font-family="Times,serif" font-size="14.00" fill="#000000">return D.1803;</text>
<text text-anchor="middle" x="86" y="-172.3" font-family="Times,serif" font-size="14.00" fill="#000000"></text>
</g>
<!-- fn_0_basic_block_5&#45;&gt;fn_0_basic_block_6 -->
<g id="edge6" class="edge">
<title>fn_0_basic_block_5:s-&gt;fn_0_basic_block_6:n</title>
<path fill="none" stroke="#0000ff" stroke-width="2" d="M86,-426.3C86,-379.8569 86,-365.797 86,-323.9079"/>
<polygon fill="#0000ff" stroke="#0000ff" stroke-width="2" points="89.5001,-323.9 86,-313.9 82.5001,-323.9 89.5001,-323.9"/>
<text text-anchor="middle" x="99.9909" y="-376.2" font-family="Times,serif" font-size="14.00" fill="#000000">[0%]</text>
</g>
<!-- fn_0_basic_block_6&#45;&gt;fn_0_basic_block_1 -->
<g id="edge7" class="edge">
<title>fn_0_basic_block_6:s-&gt;fn_0_basic_block_1:n</title>
<path fill="none" stroke="#000000" stroke-width="2" d="M86,-163.9C86,-117.7607 86,-103.7251 86,-62.2258"/>
<polygon fill="#000000" stroke="#000000" stroke-width="2" points="89.5001,-62 86,-52 82.5001,-62 89.5001,-62"/>
<text text-anchor="middle" x="99.9909" y="-93.2" font-family="Times,serif" font-size="14.00" fill="#000000">[0%]</text>
</g>
</g>
</svg>