<?xml version="1.0" encoding="UTF-8" standalone="no"?><!DOCTYPE svg PUBLIC "-//W3C//DTD SVG 1.1//EN" "http://www.w3.org/Graphics/SVG/1.1/DTD/svg11.dtd"><!-- Generated by graphviz version 2.40.1 (20161225.0304)
 --><!-- Title: B&#45;3.c.011t.cfg Pages: 1 --><svg xmlns="http://www.w3.org/2000/svg" xmlns:xlink="http://www.w3.org/1999/xlink" width="539pt" height="1693pt" viewBox="0.00 0.00 538.94 1693.40">
<g id="graph0" class="graph" transform="scale(1 1) rotate(0) translate(4 1689.4)">
<title>B-3.c.011t.cfg</title>
<polygon fill="#ffffff" stroke="transparent" points="-4,4 -4,-1689.4 534.9429,-1689.4 534.9429,4 -4,4"/>
<g id="clust1" class="cluster">
<title>cluster_main</title>
<polygon fill="none" stroke="#000000" stroke-dasharray="5,2" points="8,-8 8,-1677.4 457,-1677.4 457,-8 8,-8"/>
<text text-anchor="middle" x="232.5" y="-1660.8" font-family="Times,serif" font-size="14.00" fill="#000000">main ()</text>
</g>
<g id="clust2" class="cluster">
<title>cluster_12_1</title>
<polygon fill="#e0e0e0" stroke="#006400" stroke-width="2" points="184,-16 184,-1311.2 449,-1311.2 449,-16 184,-16"/>
<text text-anchor="middle" x="209.6953" y="-1294.6" font-family="Times,serif" font-size="14.00" fill="#000000">loop 1</text>
</g>
<!-- fn_12_basic_block_7 -->
<g id="node1" class="node">
<title>fn_12_basic_block_7</title>
<polygon fill="#d3d3d3" stroke="#000000" points="191.9739,-1119.5 191.9739,-1277.9 340.0261,-1277.9 340.0261,-1119.5 191.9739,-1119.5"/>
<text text-anchor="middle" x="266" y="-1261.3" font-family="Times,serif" font-size="14.00" fill="#000000">FREQ:0</text>
<polyline fill="none" stroke="#000000" points="191.9739,-1253.1 340.0261,-1253.1 "/>
<text text-anchor="start" x="199.9739" y="-1236.5" font-family="Times,serif" font-size="14.00" fill="#000000">&lt;bb 7&gt;:</text>
<text text-anchor="middle" x="266" y="-1219.7" font-family="Times,serif" font-size="14.00" fill="#000000"></text>
<polyline fill="none" stroke="#000000" points="191.9739,-1211.5 340.0261,-1211.5 "/>
<text text-anchor="start" x="199.9739" y="-1194.9" font-family="Times,serif" font-size="14.00" fill="#000000">if (a &lt;= 99)</text>
<text text-anchor="start" x="199.9739" y="-1178.1" font-family="Times,serif" font-size="14.00" fill="#000000">  goto &lt;bb 3&gt;; [0.00%]</text>
<text text-anchor="start" x="199.9739" y="-1161.3" font-family="Times,serif" font-size="14.00" fill="#000000">else</text>
<text text-anchor="start" x="199.9739" y="-1144.5" font-family="Times,serif" font-size="14.00" fill="#000000">  goto &lt;bb 8&gt;; [0.00%]</text>
<text text-anchor="middle" x="266" y="-1127.7" font-family="Times,serif" font-size="14.00" fill="#000000"></text>
</g>
<!-- fn_12_basic_block_3 -->
<g id="node2" class="node">
<title>fn_12_basic_block_3</title>
<polygon fill="#d3d3d3" stroke="#000000" points="191.9739,-627.9 191.9739,-786.3 340.0261,-786.3 340.0261,-627.9 191.9739,-627.9"/>
<text text-anchor="middle" x="266" y="-769.7" font-family="Times,serif" font-size="14.00" fill="#000000">FREQ:0</text>
<polyline fill="none" stroke="#000000" points="191.9739,-761.5 340.0261,-761.5 "/>
<text text-anchor="start" x="199.9739" y="-744.9" font-family="Times,serif" font-size="14.00" fill="#000000">&lt;bb 3&gt;:</text>
<text text-anchor="middle" x="266" y="-728.1" font-family="Times,serif" font-size="14.00" fill="#000000"></text>
<polyline fill="none" stroke="#000000" points="191.9739,-719.9 340.0261,-719.9 "/>
<text text-anchor="start" x="199.9739" y="-703.3" font-family="Times,serif" font-size="14.00" fill="#000000">if (a &lt;= 3)</text>
<text text-anchor="start" x="199.9739" y="-686.5" font-family="Times,serif" font-size="14.00" fill="#000000">  goto &lt;bb 4&gt;; [0.00%]</text>
<text text-anchor="start" x="199.9739" y="-669.7" font-family="Times,serif" font-size="14.00" fill="#000000">else</text>
<text text-anchor="start" x="199.9739" y="-652.9" font-family="Times,serif" font-size="14.00" fill="#000000">  goto &lt;bb 5&gt;; [0.00%]</text>
<text text-anchor="middle" x="266" y="-636.1" font-family="Times,serif" font-size="14.00" fill="#000000"></text>
</g>
<!-- fn_12_basic_block_7&#45;&gt;fn_12_basic_block_3 -->
<g id="edge8" class="edge">
<title>fn_12_basic_block_7:s-&gt;fn_12_basic_block_3:n</title>
<path fill="none" stroke="#000000" stroke-width="2" d="M266,-1119.7C266,-1099.2111 266,-1094.0889 266,-1073.6 266,-1073.6 266,-1073.6 266,-832.2 266,-815.5528 266,-809.05 266,-796.2069"/>
<polygon fill="#000000" stroke="#000000" stroke-width="2" points="269.5001,-796.1 266,-786.1 262.5001,-796.1 269.5001,-796.1"/>
<text text-anchor="middle" x="279.9909" y="-948.7" font-family="Times,serif" font-size="14.00" fill="#000000">[0%]</text>
</g>
<!-- fn_12_basic_block_8 -->
<g id="node9" class="node">
<title>fn_12_basic_block_8</title>
<polygon fill="#d3d3d3" stroke="#000000" points="36.1144,-878.1 36.1144,-1027.7 175.8856,-1027.7 175.8856,-878.1 36.1144,-878.1"/>
<text text-anchor="middle" x="106" y="-1011.1" font-family="Times,serif" font-size="14.00" fill="#000000">FREQ:0</text>
<polyline fill="none" stroke="#000000" points="36.1144,-1002.9 175.8856,-1002.9 "/>
<text text-anchor="start" x="44.1144" y="-986.3" font-family="Times,serif" font-size="14.00" fill="#000000">&lt;bb 8&gt;:</text>
<text text-anchor="middle" x="106" y="-969.5" font-family="Times,serif" font-size="14.00" fill="#000000"></text>
<polyline fill="none" stroke="#000000" points="36.1144,-961.3 175.8856,-961.3 "/>
<text text-anchor="start" x="44.1144" y="-944.7" font-family="Times,serif" font-size="14.00" fill="#000000">printf ("%d%d", a, b);</text>
<text text-anchor="middle" x="106" y="-927.9" font-family="Times,serif" font-size="14.00" fill="#000000"></text>
<polyline fill="none" stroke="#000000" points="36.1144,-919.7 175.8856,-919.7 "/>
<text text-anchor="start" x="44.1144" y="-903.1" font-family="Times,serif" font-size="14.00" fill="#000000">D.2987 = 0;</text>
<text text-anchor="middle" x="106" y="-886.3" font-family="Times,serif" font-size="14.00" fill="#000000"></text>
</g>
<!-- fn_12_basic_block_7&#45;&gt;fn_12_basic_block_8 -->
<g id="edge9" class="edge">
<title>fn_12_basic_block_7:s-&gt;fn_12_basic_block_8:n</title>
<path fill="none" stroke="#000000" stroke-width="2" d="M266,-1119.7C266,-1082.2306 132.3184,-1070.8095 109.3418,-1037.8171"/>
<polygon fill="#000000" stroke="#000000" stroke-width="2" points="112.5101,-1036.2587 106,-1027.9 105.8766,-1038.4941 112.5101,-1036.2587"/>
<text text-anchor="middle" x="222.9909" y="-1069.4" font-family="Times,serif" font-size="14.00" fill="#000000">[0%]</text>
</g>
<!-- fn_12_basic_block_4 -->
<g id="node3" class="node">
<title>fn_12_basic_block_4</title>
<polygon fill="#d3d3d3" stroke="#000000" points="192.4739,-300.3 192.4739,-425.1 333.5261,-425.1 333.5261,-300.3 192.4739,-300.3"/>
<text text-anchor="middle" x="263" y="-408.5" font-family="Times,serif" font-size="14.00" fill="#000000">FREQ:0</text>
<polyline fill="none" stroke="#000000" points="192.4739,-400.3 333.5261,-400.3 "/>
<text text-anchor="start" x="200.4739" y="-383.7" font-family="Times,serif" font-size="14.00" fill="#000000">&lt;bb 4&gt;:</text>
<text text-anchor="middle" x="263" y="-366.9" font-family="Times,serif" font-size="14.00" fill="#000000"></text>
<polyline fill="none" stroke="#000000" points="192.4739,-358.7 333.5261,-358.7 "/>
<text text-anchor="start" x="200.4739" y="-342.1" font-family="Times,serif" font-size="14.00" fill="#000000">b = b + 2;</text>
<text text-anchor="start" x="200.4739" y="-325.3" font-family="Times,serif" font-size="14.00" fill="#000000">goto &lt;bb 6&gt;; [0.00%]</text>
<text text-anchor="middle" x="263" y="-308.5" font-family="Times,serif" font-size="14.00" fill="#000000"></text>
</g>
<!-- fn_12_basic_block_3&#45;&gt;fn_12_basic_block_4 -->
<g id="edge3" class="edge">
<title>fn_12_basic_block_3:s-&gt;fn_12_basic_block_4:n</title>
<path fill="none" stroke="#000000" stroke-width="2" d="M266,-628.1C266,-607.5918 264,-602.5082 264,-582 264,-582 264,-582 264,-463.1 264,-450.0289 263.4138,-444.4711 263.139,-434.9219"/>
<polygon fill="#000000" stroke="#000000" stroke-width="2" points="266.6358,-434.6514 263,-424.7 259.6364,-434.7467 266.6358,-434.6514"/>
<text text-anchor="middle" x="277.9909" y="-514.4" font-family="Times,serif" font-size="14.00" fill="#000000">[0%]</text>
</g>
<!-- fn_12_basic_block_5 -->
<g id="node4" class="node">
<title>fn_12_basic_block_5</title>
<polygon fill="#d3d3d3" stroke="#000000" points="351.1074,-308.7 351.1074,-416.7 420.8926,-416.7 420.8926,-308.7 351.1074,-308.7"/>
<text text-anchor="middle" x="386" y="-400.1" font-family="Times,serif" font-size="14.00" fill="#000000">FREQ:0</text>
<polyline fill="none" stroke="#000000" points="351.1074,-391.9 420.8926,-391.9 "/>
<text text-anchor="start" x="359.1074" y="-375.3" font-family="Times,serif" font-size="14.00" fill="#000000">&lt;bb 5&gt;:</text>
<text text-anchor="middle" x="386" y="-358.5" font-family="Times,serif" font-size="14.00" fill="#000000"></text>
<polyline fill="none" stroke="#000000" points="351.1074,-350.3 420.8926,-350.3 "/>
<text text-anchor="start" x="359.1074" y="-333.7" font-family="Times,serif" font-size="14.00" fill="#000000">b = b * 2;</text>
<text text-anchor="middle" x="386" y="-316.9" font-family="Times,serif" font-size="14.00" fill="#000000"></text>
</g>
<!-- fn_12_basic_block_3&#45;&gt;fn_12_basic_block_5 -->
<g id="edge4" class="edge">
<title>fn_12_basic_block_3:s-&gt;fn_12_basic_block_5:n</title>
<path fill="none" stroke="#000000" stroke-width="2" d="M266,-628.1C266,-589.7277 339,-620.3723 339,-582 339,-582 339,-582 339,-463.1 339,-437.8744 373.7107,-443.416 383.4731,-426.8436"/>
<polygon fill="#000000" stroke="#000000" stroke-width="2" points="386.9789,-427.2495 386,-416.7 380.1865,-425.5574 386.9789,-427.2495"/>
<text text-anchor="middle" x="352.9909" y="-514.4" font-family="Times,serif" font-size="14.00" fill="#000000">[0%]</text>
</g>
<!-- fn_12_basic_block_6 -->
<g id="node5" class="node">
<title>fn_12_basic_block_6</title>
<polygon fill="#d3d3d3" stroke="#000000" points="283.4455,-24.5 283.4455,-132.5 352.5545,-132.5 352.5545,-24.5 283.4455,-24.5"/>
<text text-anchor="middle" x="318" y="-115.9" font-family="Times,serif" font-size="14.00" fill="#000000">FREQ:0</text>
<polyline fill="none" stroke="#000000" points="283.4455,-107.7 352.5545,-107.7 "/>
<text text-anchor="start" x="291.4455" y="-91.1" font-family="Times,serif" font-size="14.00" fill="#000000">&lt;bb 6&gt;:</text>
<text text-anchor="middle" x="318" y="-74.3" font-family="Times,serif" font-size="14.00" fill="#000000"></text>
<polyline fill="none" stroke="#000000" points="283.4455,-66.1 352.5545,-66.1 "/>
<text text-anchor="start" x="291.4455" y="-49.5" font-family="Times,serif" font-size="14.00" fill="#000000">a = a + 1;</text>
<text text-anchor="middle" x="318" y="-32.7" font-family="Times,serif" font-size="14.00" fill="#000000"></text>
</g>
<!-- fn_12_basic_block_4&#45;&gt;fn_12_basic_block_6 -->
<g id="edge5" class="edge">
<title>fn_12_basic_block_4:s-&gt;fn_12_basic_block_6:n</title>
<path fill="none" stroke="#0000ff" stroke-width="2" d="M263,-300.7C263,-282.9469 274,-280.0531 274,-262.3 274,-262.3 274,-262.3 274,-170.5 274,-148.9002 304.7468,-154.9146 314.8356,-142.3757"/>
<polygon fill="#0000ff" stroke="#0000ff" stroke-width="2" points="318.2816,-143.0911 318,-132.5 311.6155,-140.9551 318.2816,-143.0911"/>
<text text-anchor="middle" x="287.9909" y="-212.2" font-family="Times,serif" font-size="14.00" fill="#000000">[0%]</text>
</g>
<!-- fn_12_basic_block_5&#45;&gt;fn_12_basic_block_6 -->
<g id="edge6" class="edge">
<title>fn_12_basic_block_5:s-&gt;fn_12_basic_block_6:n</title>
<path fill="none" stroke="#0000ff" stroke-width="2" d="M386,-308.7C386,-294.5571 375.4864,-294.3677 369,-281.8 364.7037,-273.4757 361,-271.6677 361,-262.3 361,-262.3 361,-262.3 361,-170.5 361,-149.18 330.952,-154.7725 321.0925,-142.2831"/>
<polygon fill="#0000ff" stroke="#0000ff" stroke-width="2" points="324.3513,-140.9801 318,-132.5 317.6768,-143.0899 324.3513,-140.9801"/>
<text text-anchor="middle" x="374.9909" y="-212.2" font-family="Times,serif" font-size="14.00" fill="#000000">[0%]</text>
</g>
<!-- fn_12_basic_block_6&#45;&gt;fn_12_basic_block_7 -->
<g id="edge7" class="edge">
<title>fn_12_basic_block_6:s-&gt;fn_12_basic_block_7:n</title>
<path fill="none" stroke="#0000ff" stroke-width="2" stroke-dasharray="1,5" d="M318,-24.5C318,-9.1424 340.3127,-15.2268 352.5545,-24.5 453.8723,-101.2485 412.6268,-173.8881 430,-299.8 489.6567,-732.1617 664.4478,-985.7307 340.0261,-1277.7 335.3214,-1281.9341 294.0209,-1284.5224 275.2338,-1281.7424"/>
<polygon fill="#0000ff" stroke="#0000ff" stroke-width="2" points="276.5643,-1278.5042 266,-1277.7 273.757,-1284.9166 276.5643,-1278.5042"/>
<text text-anchor="middle" x="486.9909" y="-514.4" font-family="Times,serif" font-size="14.00" fill="#000000">[0%]</text>
</g>
<!-- fn_12_basic_block_0 -->
<g id="node6" class="node">
<title>fn_12_basic_block_0</title>
<polygon fill="#ffffff" stroke="#000000" points="266,-1644.6 204.76,-1626.6 266,-1608.6 327.24,-1626.6 266,-1644.6"/>
<polyline fill="none" stroke="#000000" points="216.273,-1629.984 216.273,-1623.216 "/>
<polyline fill="none" stroke="#000000" points="254.487,-1611.984 277.513,-1611.984 "/>
<polyline fill="none" stroke="#000000" points="315.727,-1623.216 315.727,-1629.984 "/>
<polyline fill="none" stroke="#000000" points="277.513,-1641.216 254.487,-1641.216 "/>
<text text-anchor="middle" x="266" y="-1622.4" font-family="Times,serif" font-size="14.00" fill="#000000">ENTRY</text>
</g>
<!-- fn_12_basic_block_1 -->
<g id="node7" class="node">
<title>fn_12_basic_block_1</title>
<polygon fill="#ffffff" stroke="#000000" points="106,-536.6 59.1002,-518.6 106,-500.6 152.8998,-518.6 106,-536.6"/>
<polyline fill="none" stroke="#000000" points="70.3034,-522.8998 70.3034,-514.3002 "/>
<polyline fill="none" stroke="#000000" points="94.7968,-504.8998 117.2032,-504.8998 "/>
<polyline fill="none" stroke="#000000" points="141.6966,-514.3002 141.6966,-522.8998 "/>
<polyline fill="none" stroke="#000000" points="117.2032,-532.3002 94.7968,-532.3002 "/>
<text text-anchor="middle" x="106" y="-514.4" font-family="Times,serif" font-size="14.00" fill="#000000">EXIT</text>
</g>
<!-- fn_12_basic_block_0&#45;&gt;fn_12_basic_block_1 -->
<!-- fn_12_basic_block_2 -->
<g id="node8" class="node">
<title>fn_12_basic_block_2</title>
<polygon fill="#d3d3d3" stroke="#000000" points="195.4739,-1392.5 195.4739,-1517.3 336.5261,-1517.3 336.5261,-1392.5 195.4739,-1392.5"/>
<text text-anchor="middle" x="266" y="-1500.7" font-family="Times,serif" font-size="14.00" fill="#000000">FREQ:0</text>
<polyline fill="none" stroke="#000000" points="195.4739,-1492.5 336.5261,-1492.5 "/>
<text text-anchor="start" x="203.4739" y="-1475.9" font-family="Times,serif" font-size="14.00" fill="#000000">&lt;bb 2&gt;:</text>
<text text-anchor="middle" x="266" y="-1459.1" font-family="Times,serif" font-size="14.00" fill="#000000"></text>
<polyline fill="none" stroke="#000000" points="195.4739,-1450.9 336.5261,-1450.9 "/>
<text text-anchor="start" x="203.4739" y="-1434.3" font-family="Times,serif" font-size="14.00" fill="#000000">a = 4;</text>
<text text-anchor="start" x="203.4739" y="-1417.5" font-family="Times,serif" font-size="14.00" fill="#000000">goto &lt;bb 7&gt;; [0.00%]</text>
<text text-anchor="middle" x="266" y="-1400.7" font-family="Times,serif" font-size="14.00" fill="#000000"></text>
</g>
<!-- fn_12_basic_block_0&#45;&gt;fn_12_basic_block_2 -->
<g id="edge1" class="edge">
<title>fn_12_basic_block_0:s-&gt;fn_12_basic_block_2:n</title>
<path fill="none" stroke="#0000ff" stroke-width="2" d="M266,-1608.6C266,-1571.5061 266,-1559.7331 266,-1527.189"/>
<polygon fill="#0000ff" stroke="#0000ff" stroke-width="2" points="269.5001,-1526.9 266,-1516.9 262.5001,-1526.9 269.5001,-1526.9"/>
<text text-anchor="middle" x="279.9909" y="-1559" font-family="Times,serif" font-size="14.00" fill="#000000">[0%]</text>
</g>
<!-- fn_12_basic_block_2&#45;&gt;fn_12_basic_block_7 -->
<g id="edge2" class="edge">
<title>fn_12_basic_block_2:s-&gt;fn_12_basic_block_7:n</title>
<path fill="none" stroke="#0000ff" stroke-width="2" d="M266,-1392.9C266,-1345.3 266,-1330.8898 266,-1287.9572"/>
<polygon fill="#0000ff" stroke="#0000ff" stroke-width="2" points="269.5001,-1287.7 266,-1277.7 262.5001,-1287.7 269.5001,-1287.7"/>
<text text-anchor="middle" x="279.9909" y="-1342.4" font-family="Times,serif" font-size="14.00" fill="#000000">[0%]</text>
</g>
<!-- fn_12_basic_block_9 -->
<g id="node10" class="node">
<title>fn_12_basic_block_9</title>
<polygon fill="#d3d3d3" stroke="#000000" points="55.8929,-632.3 55.8929,-781.9 156.1071,-781.9 156.1071,-632.3 55.8929,-632.3"/>
<text text-anchor="middle" x="106" y="-765.3" font-family="Times,serif" font-size="14.00" fill="#000000">FREQ:0</text>
<polyline fill="none" stroke="#000000" points="55.8929,-757.1 156.1071,-757.1 "/>
<text text-anchor="start" x="63.8929" y="-740.5" font-family="Times,serif" font-size="14.00" fill="#000000">&lt;bb 9&gt;:</text>
<text text-anchor="middle" x="106" y="-723.7" font-family="Times,serif" font-size="14.00" fill="#000000"></text>
<polyline fill="none" stroke="#000000" points="55.8929,-715.5 156.1071,-715.5 "/>
<text text-anchor="start" x="63.8929" y="-698.9" font-family="Times,serif" font-size="14.00" fill="#000000">&lt;L6&gt; [0.00%]:</text>
<text text-anchor="middle" x="106" y="-682.1" font-family="Times,serif" font-size="14.00" fill="#000000"></text>
<polyline fill="none" stroke="#000000" points="55.8929,-673.9 156.1071,-673.9 "/>
<text text-anchor="start" x="63.8929" y="-657.3" font-family="Times,serif" font-size="14.00" fill="#000000">return D.2987;</text>
<text text-anchor="middle" x="106" y="-640.5" font-family="Times,serif" font-size="14.00" fill="#000000"></text>
</g>
<!-- fn_12_basic_block_8&#45;&gt;fn_12_basic_block_9 -->
<g id="edge10" class="edge">
<title>fn_12_basic_block_8:s-&gt;fn_12_basic_block_9:n</title>
<path fill="none" stroke="#0000ff" stroke-width="2" d="M106,-877.9C106,-838.9813 106,-826.7431 106,-792.4101"/>
<polygon fill="#0000ff" stroke="#0000ff" stroke-width="2" points="109.5001,-792.1 106,-782.1 102.5001,-792.1 109.5001,-792.1"/>
<text text-anchor="middle" x="119.9909" y="-828" font-family="Times,serif" font-size="14.00" fill="#000000">[0%]</text>
</g>
<!-- fn_12_basic_block_9&#45;&gt;fn_12_basic_block_1 -->
<g id="edge11" class="edge">
<title>fn_12_basic_block_9:s-&gt;fn_12_basic_block_1:n</title>
<path fill="none" stroke="#000000" stroke-width="2" d="M106,-632.1C106,-593.3031 106,-581.1033 106,-546.8778"/>
<polygon fill="#000000" stroke="#000000" stroke-width="2" points="109.5001,-546.6 106,-536.6 102.5001,-546.6 109.5001,-546.6"/>
<text text-anchor="middle" x="119.9909" y="-577.8" font-family="Times,serif" font-size="14.00" fill="#000000">[0%]</text>
</g>
</g>
</svg>