<?xml version="1.0" encoding="UTF-8" standalone="no"?><!DOCTYPE svg PUBLIC "-//W3C//DTD SVG 1.1//EN" "http://www.w3.org/Graphics/SVG/1.1/DTD/svg11.dtd"><!-- Generated by graphviz version 2.40.1 (20161225.0304)
 --><!-- Title: B&#45;4.c.011t.cfg Pages: 1 --><svg xmlns="http://www.w3.org/2000/svg" xmlns:xlink="http://www.w3.org/1999/xlink" width="162pt" height="835pt" viewBox="0.00 0.00 162.00 835.20">
<g id="graph0" class="graph" transform="scale(1 1) rotate(0) translate(4 831.2)">
<title>B-4.c.011t.cfg</title>
<polygon fill="#ffffff" stroke="transparent" points="-4,4 -4,-831.2 158,-831.2 158,4 -4,4"/>
<g id="clust1" class="cluster">
<title>cluster_main</title>
<polygon fill="none" stroke="#000000" stroke-dasharray="5,2" points="8,-8 8,-819.2 146,-819.2 146,-8 8,-8"/>
<text text-anchor="middle" x="77" y="-802.6" font-family="Times,serif" font-size="14.00" fill="#000000">main ()</text>
</g>
<!-- fn_0_basic_block_0 -->
<g id="node1" class="node">
<title>fn_0_basic_block_0</title>
<polygon fill="#ffffff" stroke="#000000" points="77,-786.4 15.76,-768.4 77,-750.4 138.24,-768.4 77,-786.4"/>
<polyline fill="none" stroke="#000000" points="27.273,-771.784 27.273,-765.016 "/>
<polyline fill="none" stroke="#000000" points="65.487,-753.784 88.513,-753.784 "/>
<polyline fill="none" stroke="#000000" points="126.727,-765.016 126.727,-771.784 "/>
<polyline fill="none" stroke="#000000" points="88.513,-783.016 65.487,-783.016 "/>
<text text-anchor="middle" x="77" y="-764.2" font-family="Times,serif" font-size="14.00" fill="#000000">ENTRY</text>
</g>
<!-- fn_0_basic_block_1 -->
<g id="node2" class="node">
<title>fn_0_basic_block_1</title>
<polygon fill="#ffffff" stroke="#000000" points="86,-52 39.1002,-34 86,-16 132.8998,-34 86,-52"/>
<polyline fill="none" stroke="#000000" points="50.3034,-38.2998 50.3034,-29.7002 "/>
<polyline fill="none" stroke="#000000" points="74.7968,-20.2998 97.2032,-20.2998 "/>
<polyline fill="none" stroke="#000000" points="121.6966,-29.7002 121.6966,-38.2998 "/>
<polyline fill="none" stroke="#000000" points="97.2032,-47.7002 74.7968,-47.7002 "/>
<text text-anchor="middle" x="86" y="-29.8" font-family="Times,serif" font-size="14.00" fill="#000000">EXIT</text>
</g>
<!-- fn_0_basic_block_0&#45;&gt;fn_0_basic_block_1 -->
<!-- fn_0_basic_block_2 -->
<g id="node3" class="node">
<title>fn_0_basic_block_2</title>
<polygon fill="#d3d3d3" stroke="#000000" points="39.6601,-384.7 39.6601,-659.1 124.3399,-659.1 124.3399,-384.7 39.6601,-384.7"/>
<text text-anchor="middle" x="82" y="-642.5" font-family="Times,serif" font-size="14.00" fill="#000000">FREQ:0</text>
<polyline fill="none" stroke="#000000" points="39.6601,-634.3 124.3399,-634.3 "/>
<text text-anchor="start" x="47.6601" y="-617.7" font-family="Times,serif" font-size="14.00" fill="#000000">&lt;bb 2&gt;:</text>
<text text-anchor="middle" x="82" y="-600.9" font-family="Times,serif" font-size="14.00" fill="#000000"></text>
<polyline fill="none" stroke="#000000" points="39.6601,-592.7 124.3399,-592.7 "/>
<text text-anchor="start" x="47.6601" y="-576.1" font-family="Times,serif" font-size="14.00" fill="#000000">_1 = a + c;</text>
<text text-anchor="middle" x="82" y="-559.3" font-family="Times,serif" font-size="14.00" fill="#000000"></text>
<polyline fill="none" stroke="#000000" points="39.6601,-551.1 124.3399,-551.1 "/>
<text text-anchor="start" x="47.6601" y="-534.5" font-family="Times,serif" font-size="14.00" fill="#000000">_2 = b + _1;</text>
<text text-anchor="middle" x="82" y="-517.7" font-family="Times,serif" font-size="14.00" fill="#000000"></text>
<polyline fill="none" stroke="#000000" points="39.6601,-509.5 124.3399,-509.5 "/>
<text text-anchor="start" x="47.6601" y="-492.9" font-family="Times,serif" font-size="14.00" fill="#000000">_3 = c + a;</text>
<text text-anchor="middle" x="82" y="-476.1" font-family="Times,serif" font-size="14.00" fill="#000000"></text>
<polyline fill="none" stroke="#000000" points="39.6601,-467.9 124.3399,-467.9 "/>
<text text-anchor="start" x="47.6601" y="-451.3" font-family="Times,serif" font-size="14.00" fill="#000000">b = _2 * _3;</text>
<text text-anchor="middle" x="82" y="-434.5" font-family="Times,serif" font-size="14.00" fill="#000000"></text>
<polyline fill="none" stroke="#000000" points="39.6601,-426.3 124.3399,-426.3 "/>
<text text-anchor="start" x="47.6601" y="-409.7" font-family="Times,serif" font-size="14.00" fill="#000000">D.1800 = b;</text>
<text text-anchor="middle" x="82" y="-392.9" font-family="Times,serif" font-size="14.00" fill="#000000"></text>
</g>
<!-- fn_0_basic_block_0&#45;&gt;fn_0_basic_block_2 -->
<g id="edge1" class="edge">
<title>fn_0_basic_block_0:s-&gt;fn_0_basic_block_2:n</title>
<path fill="none" stroke="#0000ff" stroke-width="2" d="M77,-750.4C77,-713.3318 81.1419,-701.68 81.8862,-669.1788"/>
<polygon fill="#0000ff" stroke="#0000ff" stroke-width="2" points="85.389,-668.9382 82,-658.9 78.3894,-668.8606 85.389,-668.9382"/>
<text text-anchor="middle" x="93.9909" y="-700.8" font-family="Times,serif" font-size="14.00" fill="#000000">[0%]</text>
</g>
<!-- fn_0_basic_block_3 -->
<g id="node4" class="node">
<title>fn_0_basic_block_3</title>
<polygon fill="#d3d3d3" stroke="#000000" points="35.8929,-143.3 35.8929,-292.9 136.1071,-292.9 136.1071,-143.3 35.8929,-143.3"/>
<text text-anchor="middle" x="86" y="-276.3" font-family="Times,serif" font-size="14.00" fill="#000000">FREQ:0</text>
<polyline fill="none" stroke="#000000" points="35.8929,-268.1 136.1071,-268.1 "/>
<text text-anchor="start" x="43.8929" y="-251.5" font-family="Times,serif" font-size="14.00" fill="#000000">&lt;bb 3&gt;:</text>
<text text-anchor="middle" x="86" y="-234.7" font-family="Times,serif" font-size="14.00" fill="#000000"></text>
<polyline fill="none" stroke="#000000" points="35.8929,-226.5 136.1071,-226.5 "/>
<text text-anchor="start" x="43.8929" y="-209.9" font-family="Times,serif" font-size="14.00" fill="#000000">&lt;L0&gt; [0.00%]:</text>
<text text-anchor="middle" x="86" y="-193.1" font-family="Times,serif" font-size="14.00" fill="#000000"></text>
<polyline fill="none" stroke="#000000" points="35.8929,-184.9 136.1071,-184.9 "/>
<text text-anchor="start" x="43.8929" y="-168.3" font-family="Times,serif" font-size="14.00" fill="#000000">return D.1800;</text>
<text text-anchor="middle" x="86" y="-151.5" font-family="Times,serif" font-size="14.00" fill="#000000"></text>
</g>
<!-- fn_0_basic_block_2&#45;&gt;fn_0_basic_block_3 -->
<g id="edge2" class="edge">
<title>fn_0_basic_block_2:s-&gt;fn_0_basic_block_3:n</title>
<path fill="none" stroke="#0000ff" stroke-width="2" d="M82,-384.9C82,-347.7304 85.3135,-336.0056 85.9089,-303.408"/>
<polygon fill="#0000ff" stroke="#0000ff" stroke-width="2" points="89.4114,-303.1306 86,-293.1 82.4117,-303.0687 89.4114,-303.1306"/>
<text text-anchor="middle" x="97.9909" y="-334.6" font-family="Times,serif" font-size="14.00" fill="#000000">[0%]</text>
</g>
<!-- fn_0_basic_block_3&#45;&gt;fn_0_basic_block_1 -->
<g id="edge3" class="edge">
<title>fn_0_basic_block_3:s-&gt;fn_0_basic_block_1:n</title>
<path fill="none" stroke="#000000" stroke-width="2" d="M86,-143.1C86,-106.2488 86,-94.5528 86,-62.2217"/>
<polygon fill="#000000" stroke="#000000" stroke-width="2" points="89.5001,-62 86,-52 82.5001,-62 89.5001,-62"/>
<text text-anchor="middle" x="99.9909" y="-93.2" font-family="Times,serif" font-size="14.00" fill="#000000">[0%]</text>
</g>
</g>
</svg>